<?xml version="1.0" encoding="utf-8"?>
<!-- Generator: Adobe Illustrator 24.0.3, SVG Export Plug-In . SVG Version: 6.00 Build 0)  -->
<svg version="1.1" id="Layer_1" xmlns="http://www.w3.org/2000/svg" xmlns:xlink="http://www.w3.org/1999/xlink" x="0px" y="0px"
	 viewBox="0 0 4999 3000" style="enable-background:new 0 0 4999 3000;" xml:space="preserve">
<style type="text/css">
	.st0{clip-path:url(#SVGID_2_);}
	.st1{fill:#FFFFFF;}
</style>
<g>
	<defs>
		<rect id="SVGID_1_" x="-6" width="5011" height="3000"/>
	</defs>
	<clipPath id="SVGID_2_">
		<use xlink:href="#SVGID_1_"  style="overflow:visible;"/>
	</clipPath>
	<g class="st0">
		<path d="M3360.05-0.19c671.26,0,1342.51,0,2013.86,0c0,999.99,0,1999.98,0,3000.19c-1864.89,0-3729.88,0-5595.35,0
			c0-999.91,0-2000.05,0-3000.19c715.65,0,1431.59,0,2147.53,0c0.56,1.8,1.11,3.6,1.67,5.4c1.39-1.8,2.77-3.6,4.16-5.4
			c472.16,0,944.31,0,1416.47,0C3352.27,4.72,3356.16,4.5,3360.05-0.19z M4541.71,262.26c-5.87-3.56-9.21-6.98-12.99-7.52
			c-4.83-0.69-7.52,3.21-7.58,7.9c-0.07,4.75,4.68,9.26,9.26,7.89C4533.79,269.51,4536.44,266.25,4541.71,262.26z M1990.97,2585.33
			c-2.02-1.28-4.99-4.38-8.49-5.07c-4.74-0.94-9.74,4.49-8.15,8.9c1.01,2.81,4.48,5.9,7.49,6.72
			C1986.58,2597.15,1991.2,2592.39,1990.97,2585.33z M3621.89,2448.35c-3.95,4.81-7.41,7.36-8.38,10.59
			c-1.34,4.47,3.67,8.73,8.67,8.28c5.04-0.46,8.37-3.6,7.51-8.04C3629.07,2455.96,3625.58,2453.25,3621.89,2448.35z M945.87,1252.77
			c3.45-5.67,6.85-8.79,6.96-12.02c0.17-4.75-4.32-7.74-9.03-6.24c-2.85,0.91-6.67,5.04-6.42,7.36
			C937.73,1244.94,941.63,1247.65,945.87,1252.77z M5236.28,720.9c3.61-5.28,6.95-8.11,7.42-11.32c0.67-4.62-3.01-7.55-8.04-7.29
			c-4.92,0.25-8.47,3.42-7.58,7.92C5228.7,713.33,5232.29,715.92,5236.28,720.9z M1242.7,1520.08c-5.42-3.27-8.62-6.66-11.8-6.64
			c-2.31,0.01-6.16,4.31-6.55,7.05c-0.65,4.56,3,8.13,8.05,7.12C1235.39,1527.02,1237.81,1523.8,1242.7,1520.08z M2366.39,2220.15
			c-3.43,5.16-6.55,7.83-6.54,10.49c0,2.12,3.48,5.43,6.01,6.08c4.18,1.06,8-1.58,7.47-5.89
			C2372.98,2227.97,2369.95,2225.4,2366.39,2220.15z M2293.88,1220.88c-4.39-3.29-6.81-6.33-9.76-6.89
			c-1.96-0.37-6.25,2.47-6.7,4.45c-1.01,4.44,1.67,8.29,6.88,8.02C2286.85,1226.34,2289.28,1223.68,2293.88,1220.88z
			 M1327.31,1347.92c-5.25-3.25-8.26-6.57-10.76-6.25c-2.63,0.34-4.76,4.16-7.11,6.46c2.44,2.24,4.69,5.96,7.38,6.27
			C1319.26,1354.7,1322.19,1351.28,1327.31,1347.92z M3749.99,968.45c-4.48-3.17-7.43-6.65-9.15-6.16c-2.8,0.79-5.78,3.86-6.71,6.58
			c-0.43,1.27,3.86,5.69,5.86,5.61C3742.8,974.36,3745.47,971.37,3749.99,968.45z M-216.64,2396.49c4.8,2.55,7.42,4.99,10.01,4.97
			c1.84-0.02,5.52-3.99,5.11-5.08c-0.93-2.47-3.69-5.61-6.06-5.9C-209.7,2390.22-212.28,2393.42-216.64,2396.49z M2194.15,786.65
			c3.07-4.12,6.31-6.57,6.08-8.68c-0.24-2.24-3.76-5.75-5.87-5.76c-2.15-0.01-5.75,3.37-6.06,5.61
			C2188.01,779.92,2191.19,782.45,2194.15,786.65z M1147.33,1289.92c-3.92-2.45-6.68-5.35-8.13-4.84c-2.47,0.87-4.11,3.88-6.11,5.98
			c1.96,1.67,4.16,4.87,5.84,4.64C1141.47,1295.36,1143.66,1292.63,1147.33,1289.92z M3050.58,2663.43c2.14-3.06,5.16-5.81,4.6-6.9
			c-1.12-2.19-4.2-3.48-6.46-5.14c-1.41,2.02-3.98,4.11-3.87,6.06C3044.95,2659.22,3047.96,2660.85,3050.58,2663.43z
			 M1147.37,153.77c3.24,2.19,5.47,4.86,7.42,4.69c1.93-0.16,5.05-3.27,4.96-4.96c-0.09-1.8-3.26-4.73-5.21-4.82
			C1152.6,148.58,1150.5,151.4,1147.37,153.77z M2986.76,367.24c-3.69-1.84-5.93-3.79-8.15-3.78c-1.43,0.01-4.33,3.49-3.94,4.41
			c0.87,2.07,3.3,4.75,5.24,4.86C2981.67,372.84,2983.64,369.89,2986.76,367.24z M4687.94,1858.69c2.6-2.93,5.6-4.83,5.56-6.68
			c-0.03-1.85-2.99-4.98-4.85-5.1c-1.79-0.12-5.12,2.72-5.37,4.55C4683.03,1853.3,4685.75,1855.51,4687.94,1858.69z
			 M4713.25,1650.78c-2.56,2.97-5.56,4.94-5.45,6.73c0.12,1.89,3.12,4.91,5.03,5.03c1.74,0.11,4.96-2.85,5.21-4.73
			C4718.28,1656.03,4715.5,1653.88,4713.25,1650.78z M2214.01,1800.83c-2.41,2.93-5.33,4.94-5.18,6.7c0.16,1.89,3.21,3.56,5,5.32
			c1.86-1.72,4.96-3.29,5.21-5.2C2219.27,1805.94,2216.38,1803.84,2214.01,1800.83z M1915.35,1934.87
			c-3.31-2.46-5.47-5.28-7.34-5.12c-1.9,0.17-4.17,3.06-4.93,5.2c-0.33,0.92,2.84,4.22,4.29,4.15
			C1909.62,1938.99,1911.76,1936.91,1915.35,1934.87z M2475.64,1720.02c-2.68,3.09-5.72,5.11-5.52,6.77
			c0.23,1.89,3.11,4.04,5.34,4.89c0.87,0.33,4.44-2.59,4.4-3.97C2479.8,1725.57,2477.69,1723.5,2475.64,1720.02z M4171.61,2300.35
			c0.8-1.26,1.6-2.52,2.4-3.78c-2.22-0.72-4.61-2.28-6.61-1.92c-2.2,0.4-4.51,2.28-5.77,4.14c-0.43,0.63,2.22,4.51,3.43,4.5
			C4167.25,2303.26,4169.43,2301.43,4171.61,2300.35z M2560.66,1473.28c-2.96-2.16-5.18-4.78-6.33-4.4
			c-2.2,0.72-3.79,3.13-5.63,4.85c1.55,1.49,3.28,4.33,4.6,4.16C2555.52,1477.6,2557.48,1475.41,2560.66,1473.28z M5198.68,2444.73
			c-3.63-1.83-5.83-3.78-7.98-3.73c-1.47,0.03-4.36,3.38-3.99,4.33c0.78,2.03,3.21,4.73,5.06,4.8
			C5193.59,2450.2,5195.53,2447.35,5198.68,2444.73z M490.27,2577.6c-2.1,2.45-4.87,4.55-4.49,5.46c0.81,1.96,3.25,3.31,5.02,4.91
			c1.32-1.56,3.63-3.1,3.67-4.69C494.51,2581.71,492.24,2580.1,490.27,2577.6z M-15.5,2178.35c1.6-4.11,3.38-6.39,2.95-8.19
			c-0.48-2.04-2.95-3.64-4.56-5.44c-1.5,1.45-4,2.77-4.22,4.38C-21.53,2170.64-19.37,2172.47-15.5,2178.35z M863.32,2508.63
			c-0.7-1.1-1.4-2.2-2.1-3.3c-1.87-0.93-4-2.87-5.52-2.5c-1.62,0.39-2.66,2.97-3.95,4.59c1.73,1.22,3.38,3.27,5.2,3.42
			C858.99,2511.01,861.18,2509.44,863.32,2508.63z M4989.15,1234.31c1.16-0.68,2.32-1.36,3.48-2.04c1-1.77,3.07-3.79,2.69-5.23
			c-0.4-1.53-3.29-3.6-4.8-3.4c-1.49,0.2-3.48,2.87-3.64,4.59C4986.7,1230.17,4988.32,1232.27,4989.15,1234.31z M5175.72,57.37
			c1.98-2.81,4.51-5.07,4.05-6.04c-0.93-1.95-3.29-3.78-5.47-4.42c-0.87-0.26-4.23,3.08-3.94,4.19
			C5170.88,53.11,5173.28,54.69,5175.72,57.37z M5132.73,2853.67c-0.69-1.09-1.38-2.17-2.07-3.26c-1.83-0.91-3.94-2.83-5.43-2.46
			c-1.59,0.39-2.6,2.94-3.86,4.54c1.69,1.18,3.32,3.19,5.1,3.33C5128.49,2855.99,5130.64,2854.46,5132.73,2853.67z M1258.8,66.89
			c2.8,1.55,4.56,3.15,6.45,3.29c0.99,0.08,3.39-3.12,3.08-3.61c-1.06-1.62-2.9-3.22-4.77-3.74
			C1262.69,62.6,1261.06,64.89,1258.8,66.89z M5145.79,2951.89c2.39-2.52,4.94-4.02,4.95-5.53c0.01-1.58-2.33-4.31-3.83-4.44
			c-1.56-0.13-4.36,2.05-4.73,3.63C5141.85,2947,5144.02,2948.99,5145.79,2951.89z M4297.92,2962.83c2.33-2.4,4.8-3.82,4.83-5.28
			c0.03-1.53-2.17-4.2-3.61-4.34c-1.5-0.15-4.25,1.92-4.62,3.42C4294.18,2958.05,4296.24,2959.99,4297.92,2962.83z M2244.79,1677.93
			c-1.86,3-3.59,4.66-3.73,6.44c-0.09,1.08,2.68,3.51,3.46,3.27c1.85-0.57,4.35-2.22,4.59-3.72
			C2249.33,1682.52,2246.96,1680.75,2244.79,1677.93z M4555.76,2003.23c-2.75-2.09-4.2-3.91-5.98-4.29
			c-1.07-0.23-3.89,1.97-3.77,2.78c0.27,1.78,1.63,4.37,3.08,4.74C4550.53,2006.82,4552.61,2004.87,4555.76,2003.23z M767.83,417.12
			c-1.37,2.84-2.85,4.6-2.8,6.32c0.03,0.95,2.62,1.83,4.06,2.74c1.14-1.64,2.81-3.19,3.17-4.97
			C772.42,420.37,770.04,419.08,767.83,417.12z M-84.84,1565.01c-1.89,1.93-3.84,3.04-3.91,4.25c-0.07,1.3,1.63,2.69,2.56,4.04
			c1.55-1.19,3.49-2.16,4.44-3.69C-81.39,1569.03-83.34,1567.15-84.84,1565.01z M3754.9,2074.67c-0.72-1.12-1.44-2.24-2.16-3.36
			c-1.84-0.82-3.67-2.19-5.51-2.21c-0.93-0.01-2.97,3.21-2.62,3.65c1.13,1.47,3,2.94,4.82,3.28
			C3751.09,2076.33,3753.06,2075.18,3754.9,2074.67z M1893.43,1380.01c-2.83-1.1-4.67-2.5-5.89-2.11c-1.32,0.42-3.02,2.72-2.77,3.81
			c0.28,1.2,2.7,2.8,4.03,2.67C1890.12,1384.27,1891.24,1382.21,1893.43,1380.01z M182.34,28.27c-2.56-2.14-3.94-4.03-5.74-4.5
			c-1-0.26-2.68,1.86-4.06,2.91c1.34,1.55,2.42,3.58,4.15,4.44C177.52,31.54,179.57,29.75,182.34,28.27z M781.41,284.61
			c0.64-1.06,1.28-2.12,1.92-3.18c-1.78-0.55-3.7-1.77-5.29-1.46c-1.82,0.36-3.34,2.09-4.99,3.22c1.01,1.3,2.01,3.67,3.03,3.68
			C777.85,286.89,779.63,285.45,781.41,284.61z M1686.69,1676.09c-2.06-1.82-3.24-3.72-4.58-3.82c-1.42-0.11-2.99,1.49-4.49,2.34
			c1.25,1.58,2.23,3.57,3.87,4.53C1682.13,1679.51,1684.26,1677.57,1686.69,1676.09z M5194.98,2184.86c-4.1-1.25-5.94-2.31-7.69-2.2
			c-1.54,0.1-2.99,1.51-4.48,2.34c1.19,1.54,2.1,3.51,3.69,4.42C5187.18,2189.82,5189.24,2188.04,5194.98,2184.86z M5061.48,904.22
			c-1.96-1.97-3.02-3.95-4.34-4.12c-1.43-0.18-3.09,1.33-4.65,2.1c1.12,1.67,1.95,3.72,3.51,4.81
			C5056.6,907.43,5058.9,905.6,5061.48,904.22z M2957.4,2230.91c-1.79,2.04-4.06,3.89-3.76,4.41c0.94,1.64,2.84,2.77,4.37,4.1
			c1.03-1.3,2.84-2.58,2.86-3.89C2960.89,2234.27,2959.06,2232.98,2957.4,2230.91z M1542.98,111.83c-1.93-2-2.97-3.99-4.25-4.15
			c-1.38-0.17-2.99,1.38-4.51,2.18c1.13,1.6,1.98,3.58,3.53,4.61C1538.36,114.88,1540.54,113.13,1542.98,111.83z M4227.13,78.37
			c-2.11-1.83-3.32-3.73-4.61-3.78c-1.44-0.05-2.96,1.57-4.44,2.47c1.29,1.53,2.32,3.47,3.98,4.38
			C4222.71,81.79,4224.75,79.86,4227.13,78.37z M3294.1,2566.51c-2.09,2.15-4.05,3.26-4.14,4.5c-0.1,1.27,1.63,2.66,2.56,4
			c1.39-0.92,3.61-1.62,3.95-2.81C3296.82,2570.98,3295.35,2569.28,3294.1,2566.51z M3577.23,398.76c0.76-1.08,1.52-2.17,2.27-3.25
			c-1.8-0.47-3.65-1.42-5.38-1.26c-1.45,0.14-2.76,1.58-4.14,2.44c0.91,1.3,1.59,3.34,2.8,3.69
			C3573.98,400.74,3575.73,399.38,3577.23,398.76z M4881.2,2163.04c-3.03-1.4-4.53-2.55-6.1-2.64c-0.83-0.05-2.71,2.12-2.48,2.66
			c0.6,1.41,1.97,3.25,3.27,3.44C4877.05,2166.68,4878.53,2164.88,4881.2,2163.04z M1453.05,976.22c-1.94,2.84-4.16,4.69-3.86,6.01
			c0.34,1.5,2.8,2.96,4.64,3.54c0.65,0.21,3.27-2.32,3.13-3.38C1456.74,980.66,1455,979.1,1453.05,976.22z M2522.22,2009.67
			c1.43-6.38-1.11-8.63-4.88-10.05c-0.52-0.2-1.53,0.75-3.46,1.79C2516.42,2003.93,2518.74,2006.23,2522.22,2009.67z
			 M3253.97,1930.27c-1.5,2.72-3.03,4.37-3.1,6.09c-0.04,0.92,3.21,2.99,3.67,2.7c1.57-1,3.13-2.71,3.54-4.4
			C3258.28,1933.79,3256.04,1932.39,3253.97,1930.27z M2837.26,255.34c-2.14-1.68-3.4-3.46-4.65-3.46c-1.39,0-2.77,1.65-4.15,2.58
			c1.33,1.4,2.43,3.22,4.08,4.01C2833.2,258.79,2835.05,256.86,2837.26,255.34z M2539.67,1782.15c0.64-0.97,1.29-1.94,1.93-2.91
			c-1.71-0.55-3.48-1.62-5.13-1.48c-1.42,0.12-2.72,1.61-4.08,2.5c0.93,1.26,1.66,3.28,2.86,3.58
			C2536.49,1784.16,2538.18,1782.79,2539.67,1782.15z M4665.87,2968.28c-1.36,2.03-2.68,3.27-2.92,4.67
			c-0.12,0.73,1.68,1.75,2.62,2.64c1.16-1.12,2.68-2.08,3.32-3.42C4669.14,2971.64,4667.47,2970.27,4665.87,2968.28z
			 M1042.41,289.48c-1.42,2.82-2.56,4.16-2.61,5.55c-0.03,0.82,2.03,2.56,2.51,2.37c1.41-0.54,3.27-1.71,3.48-2.87
			C1045.99,293.46,1044.26,292.08,1042.41,289.48z M4839.92,1471.38c-1.88,1.47-2.87,2.25-3.86,3.02c1.04,1.17,1.9,2.65,3.22,3.36
			c0.51,0.27,3-1.3,2.94-1.88C4842.08,1474.52,4840.95,1473.24,4839.92,1471.38z M3064.29,2699.51c2.21-2.31,3.73-3.3,4.22-4.63
			c0.27-0.75-1.22-2.99-1.78-2.95c-1.55,0.13-3.73,0.75-4.3,1.83C3061.92,2694.72,3063.24,2696.56,3064.29,2699.51z
			 M2748.25,2658.28c-2.03,3.62-3.24,4.96-3.37,6.38c-0.06,0.71,2.46,2.44,2.77,2.24c1.34-0.86,2.78-2.13,3.21-3.53
			C2751.14,2662.45,2749.76,2661.06,2748.25,2658.28z M4511.19,2151.45c-1.34,1.93-2.65,3.1-2.88,4.43
			c-0.12,0.74,1.59,1.75,2.47,2.64c1.16-1.07,2.63-1.99,3.31-3.28C4514.34,2154.76,4512.72,2153.39,4511.19,2151.45z
			 M2031.98,1084.05c-1.9-1.04-3.2-2.14-4.63-2.32c-0.59-0.08-2.31,2.22-2.04,2.73c0.68,1.27,2.2,2.14,3.38,3.16
			C2029.53,1086.7,2030.37,1085.78,2031.98,1084.05z M2702.17,1860.57c1.33-2.95,2.45-4.39,2.46-5.83c0-0.8-2.23-2.48-2.77-2.26
			c-1.44,0.6-3.31,1.91-3.48,3.13C2698.22,1856.69,2700.12,1858.03,2702.17,1860.57z M3274.39,2518.88
			c-1.6-0.86-2.78-2.01-3.83-1.91c-1,0.09-1.86,1.5-2.79,2.32c1.28,0.93,2.46,2.1,3.9,2.64
			C3272.05,2522.07,3273.24,2520.22,3274.39,2518.88z M1251.95,2636.2c-1.63,2.7-2.93,4.02-3.1,5.46c-0.09,0.84,2,2.8,2.5,2.63
			c1.53-0.52,3.53-1.64,3.87-2.89C1255.51,2640.36,1253.7,2638.81,1251.95,2636.2z M5189.48,1649.74c1.75-1.95,3.23-3.04,3.78-4.46
			c0.29-0.76-1.06-2.08-1.67-3.15c-1.37,1.03-3.05,1.87-3.95,3.19C5187.24,1645.9,5188.47,1647.48,5189.48,1649.74z M709.71,1436.53
			c-1-1.31-1.55-2.77-2.46-3.01c-0.96-0.25-2.26,0.67-3.41,1.08c0.73,1.28,1.46,2.57,2.19,3.85
			C707.1,1437.89,708.17,1437.34,709.71,1436.53z M1535.77,2256.76c-2.7-1.93-3.73-3.24-4.71-3.21c-1.01,0.03-1.98,1.36-2.97,2.12
			c1.14,0.99,2.14,2.43,3.48,2.83C1532.49,2258.78,1533.88,2257.6,1535.77,2256.76z M3194.96,1500.29c-2.94-1.98-4-3.26-4.99-3.22
			c-1.07,0.05-2.08,1.34-3.11,2.09c1.18,1.04,2.21,2.56,3.59,2.97C3191.41,1502.42,3192.88,1501.21,3194.96,1500.29z M62.01,2215.86
			c-1.09-1.34-1.76-2.95-2.72-3.13c-1.02-0.2-2.33,0.96-3.51,1.53c0.88,1.3,1.75,2.6,2.63,3.9
			C59.48,2217.47,60.55,2216.79,62.01,2215.86z M656.36,1585.71c-1.04-1.29-1.65-2.78-2.57-2.99c-0.95-0.21-2.2,0.85-3.32,1.35
			c0.82,1.23,1.5,2.6,2.57,3.58C653.24,1587.84,654.95,1586.55,656.36,1585.71z M3147.05,924.16c-2.31-0.58-3.91-1.39-5.35-1.18
			c-0.74,0.11-1.2,2.02-1.78,3.12c1.46,0.68,2.88,1.68,4.41,1.86C3144.88,928.03,3145.69,926.13,3147.05,924.16z M419.67,1934.44
			c-1.14,1.28-2.8,2.79-2.62,3.02c0.92,1.21,2.31,2.1,3.54,3.1c0.66-1.04,1.89-2.13,1.8-3.11
			C422.31,1936.5,420.86,1935.67,419.67,1934.44z M-181.68,1012.78c-1.55-0.91-2.74-2.15-3.78-2.05c-1.03,0.11-1.92,1.57-2.87,2.43
			c1.27,0.98,2.45,2.16,3.89,2.78C-184.12,1016.07-182.84,1014.15-181.68,1012.78z M1995.2,1885.09c-1.5-1.1-2.35-1.99-3.4-2.36
			c-0.42-0.15-1.9,1-1.83,1.34c0.23,1.04,0.98,1.97,1.53,2.95C1992.52,1886.49,1993.53,1885.96,1995.2,1885.09z M625.25,1034.4
			c-1.14,0.82-2.53,1.59-2.45,1.79c0.44,1.04,1.26,1.94,1.95,2.89c0.72-0.49,2.09-1.08,2.03-1.45
			C626.59,1036.54,625.83,1035.53,625.25,1034.4z M3627.79,471.43c-3.36-1.82-4.59-3.03-5.53-2.85c-0.96,0.18-1.63,1.73-2.42,2.68
			c1.03,0.75,2.01,2.03,3.1,2.11C3624.12,473.45,3625.41,472.44,3627.79,471.43z M3769.26,1920.06c0.68-0.38,1.37-0.76,2.05-1.14
			c-0.66-0.79-1.33-1.59-1.99-2.38c-0.53,0.58-1.48,1.15-1.49,1.73C3767.83,1918.86,3768.74,1919.46,3769.26,1920.06z
			 M5227.53,2540.53c-1.41,1.26-2.49,1.91-3.02,2.85c-0.22,0.39,0.77,2.01,1.12,1.98c1.13-0.08,2.73-0.39,3.17-1.14
			C5229.17,2543.6,5228.17,2542.24,5227.53,2540.53z M2522.2,2077.12c-1.56-1.24-2.39-2.21-3.47-2.61
			c-0.46-0.17-2.08,0.97-2.01,1.29c0.23,1.1,0.74,2.63,1.59,2.97C2519.05,2079.07,2520.4,2077.95,2522.2,2077.12z M2818.91,1090.48
			c-0.38,1.21-0.93,2.31-0.94,3.42c0,0.34,2.06,1.12,2.18,0.97c0.72-0.9,1.25-1.98,1.56-3.08
			C2821.76,1091.64,2820.23,1091.09,2818.91,1090.48z M4747.96,1629.14c-0.55,1.7-1.16,2.75-1.11,3.77
			c0.02,0.49,1.66,1.46,1.89,1.31c0.94-0.63,2.16-1.59,2.2-2.47C4750.96,1631.07,4749.38,1630.33,4747.96,1629.14z M3666.31,2673.32
			c-0.62-0.65-1.19-1.73-1.82-1.76c-0.63-0.03-1.32,0.98-1.98,1.53c0.86,0.73,1.71,1.45,2.57,2.18
			C3665.52,2674.57,3665.96,2673.88,3666.31,2673.32z M5182.57,844.94c1.3-0.59,2.07-0.94,2.85-1.29c-0.55-1-1.01-2.08-1.75-2.92
			c-0.14-0.16-2.12,0.66-2.11,0.98C5181.62,842.77,5182.18,843.81,5182.57,844.94z M677.12,831.24c1.26-1.37,2.75-2.28,2.74-3.17
			c-0.02-0.96-1.45-1.88-2.26-2.82c-0.94,0.8-2.49,1.51-2.64,2.43C674.8,828.58,676.1,829.69,677.12,831.24z M1471.52,1495.62
			c1.21-0.55,1.96-0.89,2.7-1.22c-0.52-0.98-0.94-2.02-1.65-2.86c-0.12-0.14-2.07,0.64-2.06,0.94
			C1470.58,1493.52,1471.13,1494.53,1471.52,1495.62z M1693.53,60.59c1.01-1.46,2.32-2.54,2.18-3.41c-0.14-0.88-1.77-2.21-2.65-2.14
			c-0.9,0.07-2.35,1.6-2.33,2.46C1690.75,58.39,1692.25,59.26,1693.53,60.59z M4667.72,1165.58c-1.09,1.54-2.43,2.62-2.33,3.54
			c0.11,0.94,1.65,1.73,2.56,2.59c0.87-0.93,2.36-1.82,2.42-2.8C4670.43,1168.02,4668.95,1167.03,4667.72,1165.58z M4751.11,2338.48
			c-0.56-1.31-0.89-2.09-1.23-2.88c-1.13,0.46-2.31,0.83-3.32,1.47c-0.14,0.09,0.56,2.08,0.95,2.1
			C4748.66,2339.23,4749.84,2338.76,4751.11,2338.48z M2967.37,1444.64c-1.5-0.77-2.72-1.9-3.6-1.7c-1.01,0.23-1.73,1.64-2.57,2.54
			c1.28,0.83,2.57,1.65,3.85,2.48C2965.73,1446.98,2966.41,1446.01,2967.37,1444.64z M4448.57,2444.14
			c-0.66,0.53-1.72,0.97-1.86,1.61c-0.13,0.59,0.71,1.38,1.12,2.09c0.88-0.67,1.76-1.35,2.65-2.02
			C4449.84,2445.25,4449.21,2444.69,4448.57,2444.14z M1494.54,314.18c1.1,1.21,1.78,2.64,2.71,2.8c0.98,0.17,2.19-0.87,3.29-1.39
			c-0.85-1.21-1.69-2.41-2.54-3.62C1496.99,312.62,1495.97,313.27,1494.54,314.18z M1047.58,707.41c1.2-1.47,2.15-2.28,2.55-3.29
			c0.16-0.4-1.04-1.84-1.41-1.77c-1.09,0.2-2.71,0.75-2.92,1.48C1045.57,704.63,1046.69,705.77,1047.58,707.41z M3617.64,1318.81
			c-0.64,0.53-1.67,0.98-1.8,1.6c-0.12,0.56,0.74,1.31,1.17,1.98c0.84-0.68,1.69-1.36,2.53-2.04
			C3618.9,1319.84,3618.27,1319.33,3617.64,1318.81z M2454.38,1298.47c1.35-0.58,2.18-0.94,3-1.3c-0.51-1.07-0.92-2.21-1.64-3.13
			c-0.12-0.16-2.25,0.6-2.25,0.94C2453.48,1296.12,2454.02,1297.25,2454.38,1298.47z M4460.12,1250.46
			c-1.21-1.38-1.92-2.93-2.82-3.03c-1-0.11-2.16,1.09-3.25,1.72c0.7,1.02,1.21,2.59,2.16,2.9
			C4457.07,1252.32,4458.42,1251.21,4460.12,1250.46z M4633.33,299.71c0.54-0.62,1.07-1.25,1.6-1.87c-0.94-0.67-1.88-1.33-2.82-2
			c-0.39,1.06-0.79,2.11-1.18,3.17C4631.73,299.24,4632.53,299.47,4633.33,299.71z M1911.27,118.07c-2.34-1.74-3-2.24-3.67-2.73
			c-0.68,0.9-1.45,1.75-1.94,2.73c-0.07,0.14,1.26,1.33,1.87,1.27C1908.72,119.24,1909.85,118.59,1911.27,118.07z M4217.99,190.06
			c-0.7,0.51-2.07,1.28-1.98,1.48c0.44,1.02,1.25,1.9,1.94,2.83c0.69-0.91,1.53-1.77,1.95-2.78
			C4220,191.36,4218.67,190.58,4217.99,190.06z M3568.99,975.11c-2.01,3.51-3.26,4.71-3.05,5.6c0.21,0.91,1.84,1.52,2.86,2.26
			c0.75-1,2.03-1.95,2.12-3C3571.01,978.81,3570.03,977.56,3568.99,975.11z M-2.94,2142.73c-1.16-0.31-2.23-0.79-3.28-0.75
			c-0.38,0.01-1.11,1.82-0.98,1.91c0.9,0.63,1.98,1.03,3,1.51C-3.85,2144.68-3.51,2143.95-2.94,2142.73z M4908.63,2925.76
			c1.17-1.39,2.57-2.33,2.52-3.21c-0.05-0.95-1.43-1.84-2.24-2.75c-0.91,0.81-2.44,1.55-2.56,2.46
			C4906.24,2923.15,4907.56,2924.21,4908.63,2925.76z M574.45,913.38c-0.28-0.75-0.56-1.51-0.84-2.26c-1,0.53-2,1.05-3,1.58
			c0.55,0.62,1.02,1.62,1.69,1.76C572.9,914.58,573.72,913.78,574.45,913.38z M5122.76,2184.16c-2.41-0.96-3.63-1.86-4.77-1.78
			c-1.04,0.07-1.99,1.21-2.98,1.88c0.73,0.89,1.33,2.36,2.21,2.53C5118.13,2186.97,5119.31,2185.89,5122.76,2184.16z
			 M5189.66,908.02c-1.52-0.99-2.65-2.31-3.55-2.17c-0.93,0.14-2.28,1.72-2.23,2.6c0.05,0.85,1.67,2.24,2.59,2.23
			C5187.4,910.68,5188.3,909.23,5189.66,908.02z M4338.3,1827.62c-2.48-1.84-3.17-2.34-3.85-2.85c-0.73,0.91-1.57,1.76-2.07,2.77
			c-0.09,0.18,1.31,1.48,1.95,1.42C4335.58,1828.86,4336.78,1828.18,4338.3,1827.62z M160.53,2195.52
			c-1.38,1.19-2.95,1.92-3.04,2.79c-0.09,0.86,1.23,2.51,2.1,2.62c0.91,0.11,2.62-1.04,2.86-1.92
			C162.68,2198.2,161.42,2197.02,160.53,2195.52z M1866.16,1782.74c-1.1,1.44-2.42,2.42-2.35,3.29c0.08,0.92,1.48,1.73,2.31,2.6
			c0.82-0.85,2.23-1.66,2.31-2.58C1868.5,1785.17,1867.21,1784.18,1866.16,1782.74z M4311.94,2239.86
			c-1.06-0.92-1.68-1.47-2.31-2.02c-0.78,0.83-1.64,1.61-2.24,2.54c-0.08,0.13,1.36,1.57,1.71,1.44
			C4310.12,2241.45,4310.95,2240.59,4311.94,2239.86z M2445.39,337.53c-1.46-1.2-2.43-2.61-3.39-2.61c-0.99,0-1.98,1.38-2.98,2.15
			c0.84,0.91,1.59,2.44,2.56,2.57C2442.55,339.77,2443.73,338.52,2445.39,337.53z M3256.44,418.45c-0.73,0.39-1.46,0.78-2.19,1.18
			c0.73,0.83,1.45,1.66,2.18,2.49c0.56-0.59,1.57-1.2,1.55-1.77C3257.96,419.69,3257,419.08,3256.44,418.45z M2211.79,1745.79
			c1.18-0.66,2.55-1.25,2.5-1.43c-0.33-1.02-0.99-1.94-1.54-2.89c-0.74,0.39-2.12,0.83-2.1,1.17
			C2210.73,1743.68,2211.35,1744.69,2211.79,1745.79z M3927.42,2747.51c-1.65-1.16-2.57-2.09-3.69-2.44
			c-0.44-0.14-1.97,1.16-1.88,1.57c0.27,1.13,1.12,2.14,1.74,3.2C3924.64,2749.2,3925.69,2748.57,3927.42,2747.51z M1450.42,1127.3
			c1.09,0.85,1.74,1.36,2.4,1.88c0.67-0.93,1.47-1.82,1.9-2.84c0.08-0.2-1.58-1.49-1.85-1.34
			C1451.92,1125.53,1451.24,1126.48,1450.42,1127.3z M142.78,2708.86c0-0.77,0-1.55,0-2.32c-1.08,0.17-2.15,0.34-3.23,0.51
			c0.26,0.76,0.31,1.84,0.86,2.2C140.89,2709.54,141.94,2709.02,142.78,2708.86z M1457.61,2451.26c0-1.36,0.13-2.83-0.02-2.85
			c-1.14-0.2-2.33-0.11-3.51-0.12c0.03,0.81-0.23,2.13,0.15,2.33C1455.16,2451.11,1456.39,2451.07,1457.61,2451.26z M4596.42,715.82
			c-0.4-0.65-0.8-1.3-1.2-1.94c-0.82,0.63-1.64,1.26-2.46,1.89c0.6,0.52,1.2,1.43,1.81,1.45
			C4595.17,717.22,4595.8,716.32,4596.42,715.82z M4270.68,100.4c1.28-0.64,2.04-1.03,2.8-1.41c-0.57-0.99-1.07-2.02-1.8-2.89
			c-0.09-0.11-2.01,0.72-2,1.1C4269.7,98.24,4270.29,99.27,4270.68,100.4z M5237.2,2514.48c-1.09-0.86-1.73-1.37-2.37-1.88
			c-0.69,0.89-1.47,1.74-1.99,2.71c-0.06,0.12,1.48,1.43,1.84,1.27C5235.63,2516.17,5236.34,2515.25,5237.2,2514.48z
			 M524.93,2523.63c0.77-0.88,1.67-1.63,2.11-2.57c0.13-0.28-1.32-1.68-1.49-1.59c-0.99,0.5-1.82,1.31-2.7,2.01
			C523.41,2522.06,523.98,2522.64,524.93,2523.63z M4600.43,1503.52c-1.79,3.15-2.99,4.3-2.79,5.17c0.2,0.88,1.77,1.47,2.74,2.19
			c0.71-0.96,1.93-1.89,2-2.89C4602.46,1506.89,4601.47,1505.73,4600.43,1503.52z M2193.08,2536.14c-0.72-1.12-1.36-2.44-1.57-2.38
			c-1.09,0.31-2.06,0.97-3.08,1.51c0.43,0.71,0.91,2.03,1.28,2C2190.82,2537.19,2191.89,2536.58,2193.08,2536.14z M1150.16,2597.34
			c0.57-0.58,1.13-1.15,1.7-1.73c-0.99-0.53-1.97-1.06-2.96-1.6c-0.28,0.74-0.93,1.59-0.74,2.2
			C1148.33,2596.73,1149.46,2596.97,1150.16,2597.34z M3100.71,1474.78c-0.35,1.11-0.9,2.16-0.89,3.21c0,0.35,2,1.09,2.1,0.97
			c0.69-0.9,1.13-1.98,1.65-3.01C3102.79,1475.63,3102.01,1475.31,3100.71,1474.78z M3681.32,1454.06c0.76-0.88,1.65-1.62,2.07-2.55
			c0.13-0.29-1.3-1.66-1.48-1.57c-0.98,0.5-1.79,1.3-2.67,1.99C3679.81,1452.51,3680.37,1453.08,3681.32,1454.06z M4350.5,1458.29
			c1.01-2.64,1.93-3.91,1.82-5.1c-0.1-1.04-1.35-1.99-2.09-2.98c-1.01,0.71-2.65,1.29-2.85,2.17
			C4347.18,1453.28,4348.38,1454.48,4350.5,1458.29z M3163.04,2577.51c0.72-0.41,1.93-0.72,2.05-1.24c0.13-0.62-0.69-1.42-1.09-2.14
			c-0.71,0.41-1.88,0.72-2.01,1.27C3161.84,2575.99,3162.64,2576.8,3163.04,2577.51z M3415.54,674.57c-0.37-0.7-0.74-1.39-1.11-2.09
			c-0.7,0.38-1.87,0.68-1.98,1.17c-0.13,0.61,0.63,1.39,1.01,2.1C3414.16,675.37,3414.85,674.97,3415.54,674.57z M375.22,2545.55
			c-0.75-0.38-1.6-1.17-2.23-1.04c-0.58,0.12-0.93,1.24-1.38,1.92c0.77,0.39,1.6,1.17,2.28,1.06
			C374.43,2547.4,374.78,2546.24,375.22,2545.55z M3877.39,574c-0.64-0.67-1.11-1.57-1.73-1.68c-0.62-0.11-1.39,0.58-2.09,0.92
			c0.68,0.77,1.35,1.54,2.03,2.32C3876.2,575.04,3876.8,574.52,3877.39,574z M413.15,1137.82c-0.43-0.66-0.73-1.72-1.32-1.89
			c-0.68-0.2-1.61,0.39-2.44,0.63c0.59,0.92,1.18,1.83,1.77,2.75C411.83,1138.82,412.49,1138.32,413.15,1137.82z M1799.35,2605.95
			c0.44-0.67,1.31-1.41,1.21-1.98c-0.12-0.62-1.15-1.09-1.78-1.62c-0.62,0.92-1.23,1.85-1.85,2.77
			C1797.74,2605.4,1798.54,2605.68,1799.35,2605.95z M2243.91,1433.86c-0.7-0.44-1.4-0.88-2.11-1.31c-0.45,0.7-1.32,1.46-1.22,2.08
			c0.09,0.53,1.3,0.88,2.01,1.31C2243.03,1435.24,2243.47,1434.55,2243.91,1433.86z M81.87,1134.15c-0.76-0.78-1.35-1.4-1.94-2.01
			c-0.58,0.61-1.6,1.21-1.62,1.84c-0.02,0.58,1.02,1.65,1.62,1.66C80.56,1135.65,81.23,1134.69,81.87,1134.15z M-15.31,1519.28
			c-0.74,0.36-1.47,0.73-2.21,1.09c0.73,0.82,1.45,1.63,2.18,2.45c0.59-0.59,1.63-1.16,1.64-1.76
			C-13.68,1520.48-14.72,1519.87-15.31,1519.28z M3028.67,1209.06c-0.54-0.62-0.99-1.6-1.64-1.75c-0.57-0.13-1.37,0.68-2.07,1.08
			c0.68,0.82,1.37,1.64,2.05,2.46C3027.57,1210.25,3028.12,1209.66,3028.67,1209.06z M4037.83,2625.2c-0.69,0.4-1.77,0.67-1.95,1.22
			c-0.2,0.59,0.44,1.44,0.72,2.18c0.94-0.54,1.88-1.09,2.82-1.63C4038.89,2626.39,4038.36,2625.8,4037.83,2625.2z M2068.54,1417.76
			c-0.68-0.54-1.36-1.08-2.04-1.62c-0.64,0.95-1.28,1.9-1.92,2.85c0.85,0.28,1.8,0.92,2.51,0.73
			C2067.72,1419.55,2068.07,1418.45,2068.54,1417.76z M-20.65,2496.9c-0.36-0.68-0.73-1.35-1.09-2.03
			c-0.69,0.36-1.85,0.63-1.96,1.12c-0.13,0.58,0.62,1.35,0.99,2.04C-22.03,2497.66-21.34,2497.28-20.65,2496.9z M1541.1,1549.29
			c-0.45-0.7-0.77-1.81-1.38-1.99c-0.7-0.2-1.67,0.43-2.52,0.7c0.63,0.98,1.26,1.96,1.89,2.94
			C1539.76,1550.39,1540.42,1549.84,1541.1,1549.29z M5194.7,2652.42c0.7-0.38,1.79-0.64,1.99-1.18c0.22-0.61-0.38-1.49-0.62-2.25
			c-0.94,0.52-1.88,1.04-2.83,1.56C5193.72,2651.17,5194.21,2651.8,5194.7,2652.42z M-134.15,2652.71
			c-0.45,0.62-1.33,1.33-1.22,1.84c0.13,0.61,1.12,1.04,1.74,1.56c0.58-0.87,1.17-1.74,1.75-2.61
			C-132.63,2653.23-133.39,2652.97-134.15,2652.71z M4072.03,1563.95c-0.65-1.16-1.04-1.87-1.44-2.57
			c-0.98,0.55-2.06,1.01-2.87,1.74c-0.16,0.14,0.77,1.96,1.11,1.93C4069.9,1564.96,4070.92,1564.37,4072.03,1563.95z
			 M4822.85,2990.89c-0.41-0.63-0.7-1.64-1.25-1.8c-0.64-0.18-1.52,0.39-2.29,0.63c0.57,0.88,1.13,1.75,1.7,2.63
			C4821.62,2991.87,4822.23,2991.38,4822.85,2990.89z M3136.45,1567c-0.42,0.71-1.25,1.5-1.13,2.11c0.13,0.67,1.15,1.18,1.78,1.77
			c0.6-1.01,1.19-2.02,1.79-3.03C3138.08,1567.57,3137.27,1567.29,3136.45,1567z M1775.77,1582.63c-1.04-0.79-1.69-1.29-2.33-1.78
			c-0.63,0.9-1.42,1.75-1.79,2.74c-0.09,0.25,1.53,1.48,1.72,1.36C1774.27,1584.35,1774.97,1583.45,1775.77,1582.63z M2810,1132.37
			c-0.41-0.67-0.7-1.74-1.25-1.88c-0.58-0.15-1.42,0.59-2.15,0.94c0.39,0.67,0.68,1.8,1.2,1.9
			C2808.43,1133.46,2809.26,1132.73,2810,1132.37z M2877.02,1599.46c-0.65,0.49-1.67,0.89-1.84,1.5c-0.14,0.51,0.71,1.27,1.12,1.92
			c0.86-0.63,1.71-1.25,2.57-1.88C2878.27,1600.49,2877.65,1599.98,2877.02,1599.46z M3001.54,2710.17
			c-0.66-0.41-1.4-1.24-1.95-1.13c-0.63,0.12-1.08,1.06-1.61,1.65c0.92,0.57,1.84,1.15,2.76,1.72
			C3001.01,2711.66,3001.27,2710.92,3001.54,2710.17z M1455.8,2372.35c0.77-0.37,1.54-0.74,2.31-1.12c-0.73-0.85-1.46-1.7-2.19-2.56
			c-0.59,0.61-1.59,1.19-1.64,1.83C1454.24,2371.08,1455.24,2371.73,1455.8,2372.35z M5322.7,1067.63c0.73-0.41,1.89-0.69,2.06-1.25
			c0.17-0.57-0.65-1.4-1.03-2.12c-0.73,0.39-1.95,0.67-2.07,1.19C5321.52,1066.08,5322.3,1066.89,5322.7,1067.63z M2450.93,1061.9
			c-0.59-0.65-1.15-1.27-1.7-1.89c-0.6,0.59-1.62,1.15-1.67,1.77c-0.04,0.56,1,1.19,1.56,1.79
			C2449.72,1063.02,2450.33,1062.46,2450.93,1061.9z M603.14,1054.71c-0.55-0.56-1.1-1.13-1.65-1.69c-0.55,0.57-1.54,1.14-1.53,1.7
			c0.01,0.59,0.98,1.16,1.53,1.73C602.04,1055.88,602.59,1055.3,603.14,1054.71z M3493.72,765.7c-0.42-0.67-0.76-1.82-1.29-1.9
			c-0.67-0.11-1.51,0.63-2.27,1c0.44,0.67,0.77,1.76,1.34,1.89C3492.13,766.83,3492.97,766.08,3493.72,765.7z M3557.89,2338.32
			c0-0.8,0-1.57,0-2.35c-0.78,0.01-1.96-0.26-2.24,0.1c-0.39,0.49-0.4,1.72,0,2.17C3555.98,2338.61,3557.14,2338.32,3557.89,2338.32
			z M340.91,2267.17c-0.68-0.42-1.35-0.85-2.03-1.27c-0.42,0.69-1.22,1.43-1.12,2.05c0.07,0.49,1.24,0.84,1.92,1.25
			C340.09,2268.52,340.5,2267.85,340.91,2267.17z M1085.73,2258.88c-0.72,0.41-1.86,0.7-2.05,1.28c-0.22,0.67,0.4,1.59,0.65,2.4
			c0.99-0.57,1.99-1.14,2.98-1.71C1086.79,2260.19,1086.26,2259.53,1085.73,2258.88z M2415.35,2756.87
			c-0.62-0.48-1.24-0.96-1.86-1.43c-0.57,0.86-1.14,1.72-1.71,2.58c0.77,0.24,1.64,0.81,2.29,0.64
			C2414.63,2758.5,2414.93,2757.5,2415.35,2756.87z M5313.77,1324.72c0.68-0.4,1.83-0.72,1.93-1.22c0.11-0.6-0.68-1.35-1.09-2.03
			c-0.68,0.41-1.78,0.73-1.92,1.27C5312.55,1323.28,5313.37,1324.05,5313.77,1324.72z M3288.19,310.63
			c-0.89-0.95-1.43-1.53-1.97-2.11c-0.72,0.81-1.58,1.55-2.04,2.48c-0.12,0.24,1.34,1.62,1.56,1.52
			C3286.7,312.04,3287.48,311.22,3288.19,310.63z M5037.2,1037.51c-0.65-0.57-1.29-1.56-1.97-1.59c-0.63-0.03-1.31,0.97-1.97,1.52
			c0.64,0.57,1.27,1.6,1.91,1.6C5035.85,1039.03,5036.53,1038.07,5037.2,1037.51z M2759.87,810.47c-0.42-0.69-0.84-1.38-1.26-2.07
			c-0.72,0.41-1.92,0.73-2.02,1.25c-0.12,0.6,0.72,1.38,1.14,2.09C2758.44,811.32,2759.16,810.9,2759.87,810.47z M3018.34,2871.93
			c-0.67,0.52-1.33,1.03-2,1.55c0.89,0.68,1.79,1.35,2.68,2.03c0.45-0.67,1.38-1.46,1.24-1.98
			C3020.1,2872.88,3019.03,2872.45,3018.34,2871.93z M1402.7,1800.8c-0.72-0.38-1.44-0.76-2.16-1.14c-0.4,0.95-0.8,1.9-1.21,2.85
			c0.82,0.14,1.8,0.61,2.4,0.33C1402.28,1802.58,1402.4,1801.51,1402.7,1800.8z M2447.6,2237.05c0.89-0.98,1.43-1.58,1.97-2.18
			c-0.97-0.61-1.87-1.38-2.93-1.73c-0.27-0.09-1.58,1.47-1.45,1.65C2445.8,2235.65,2446.75,2236.3,2447.6,2237.05z M104.74,2231.29
			c-0.62-0.56-1.23-1.53-1.87-1.55c-0.63-0.01-1.28,0.95-1.92,1.48c0.84,0.7,1.68,1.4,2.52,2.09
			C103.9,2232.64,104.32,2231.97,104.74,2231.29z M2827.6,848.94c-0.4-0.65-0.66-1.65-1.22-1.84c-0.61-0.21-1.51,0.34-2.29,0.55
			c0.53,0.91,1.06,1.82,1.59,2.72C2826.32,849.89,2826.96,849.42,2827.6,848.94z M751.24,1316.53c-0.73,0.36-1.46,0.72-2.19,1.07
			c0.72,0.81,1.43,1.61,2.15,2.42c0.58-0.58,1.6-1.15,1.62-1.74C752.83,1317.71,751.81,1317.11,751.24,1316.53z M4535.6,1298.12
			c-0.72-0.38-1.51-1.13-2.14-1.02c-0.53,0.09-0.88,1.17-1.32,1.81c0.71,0.37,1.5,1.12,2.1,1
			C4534.81,1299.8,4535.16,1298.76,4535.6,1298.12z M3337.41,2906c-0.42,0.72-0.84,1.45-1.26,2.17c1.07,0.4,2.13,0.79,3.2,1.19
			c0.18-0.84,0.74-1.86,0.43-2.46C3339.49,2906.37,3338.24,2906.29,3337.41,2906z M139.6,1839.39c-1.2-0.31-2.3-0.8-3.39-0.77
			c-0.38,0.01-0.72,1.31-1.08,2.02c1.07,0.46,2.11,1.01,3.23,1.29C138.5,1841.96,139.03,1840.59,139.6,1839.39z M2111.19,1845.36
			c-0.75-0.4-1.5-0.8-2.25-1.2c-0.43,0.99-0.86,1.98-1.28,2.97c0.85,0.16,1.89,0.67,2.51,0.37
			C2110.74,1847.24,2110.87,1846.12,2111.19,1845.36z M61.6,226.54c-0.42,0.72-1.25,1.52-1.13,2.14c0.1,0.53,1.31,0.86,2.03,1.29
			c0.41-0.71,1.23-1.51,1.09-2.11C63.48,227.31,62.31,226.97,61.6,226.54z M4512.71,2913.69c-0.73,0.37-1.47,0.75-2.2,1.12
			c0.4,0.67,0.69,1.76,1.24,1.91c0.58,0.15,1.42-0.61,2.15-0.97C4513.51,2915.07,4513.11,2914.38,4512.71,2913.69z M2561.55,1276.37
			c-0.56-0.6-1.06-1.57-1.71-1.68c-0.65-0.11-1.45,0.66-2.19,1.05c0.73,0.8,1.46,1.61,2.2,2.41
			C2560.41,1277.56,2560.98,1276.97,2561.55,1276.37z M3619.1,318.15c-0.4-0.64-0.69-1.65-1.24-1.81c-0.64-0.19-1.52,0.38-2.29,0.62
			c0.56,0.87,1.11,1.74,1.67,2.61C3617.85,319.1,3618.47,318.63,3619.1,318.15z M5050.61,2150.91c-1.16-0.4-2.2-0.98-3.26-1.01
			c-0.42-0.01-0.88,1.18-1.33,1.82c1,0.53,1.97,1.17,3.04,1.48C5049.27,2153.25,5049.9,2151.99,5050.61,2150.91z M2620.77,1870.71
			c-0.78-1.08-1.26-1.74-1.74-2.4c-0.93,0.63-1.94,1.2-2.7,1.98c-0.12,0.12,0.97,1.82,1.32,1.77
			C2618.71,1871.89,2619.69,1871.22,2620.77,1870.71z M3800.25,2151.65c-0.69-0.42-1.38-0.85-2.07-1.27
			c-0.42,0.68-1.27,1.45-1.15,2.02c0.12,0.55,1.25,0.9,1.94,1.34C3799.4,2153.05,3799.82,2152.35,3800.25,2151.65z M763.61,1879.21
			c-0.95,0.96-1.52,1.54-2.1,2.11c0.87,0.71,1.68,1.54,2.68,2.04c0.2,0.1,1.68-1.3,1.55-1.56
			C765.27,1880.85,764.38,1880.09,763.61,1879.21z M2525.01,1264.24c-0.77-0.42-1.6-1.24-2.28-1.13c-0.69,0.11-1.21,1.13-1.81,1.76
			c1.05,0.57,2.11,1.13,3.16,1.7C2524.39,1265.79,2524.7,1265.02,2525.01,1264.24z M2528.89,1910.23c-0.43-0.66-0.78-1.78-1.32-1.87
			c-0.67-0.11-1.5,0.63-2.26,1c0.44,0.66,0.79,1.74,1.36,1.85C2527.3,1911.34,2528.14,1910.6,2528.89,1910.23z M3896.15,1026.92
			c1.34-1.57,2.2-2.31,2.62-3.24c0.12-0.26-0.95-1.39-1.6-1.51c-0.68-0.12-2.15,0.51-2.15,0.79
			C3895.04,1023.98,3895.54,1024.98,3896.15,1026.92z M3668.75,2132.65c-0.42-0.69-0.7-1.78-1.29-1.96
			c-0.69-0.21-1.64,0.39-2.48,0.64c0.59,0.96,1.18,1.91,1.78,2.87C3667.42,2133.68,3668.08,2133.17,3668.75,2132.65z M95.91,2087.46
			c-0.4-0.71-0.79-1.43-1.19-2.14c-0.69,0.42-1.82,0.74-1.96,1.28c-0.14,0.58,0.65,1.37,1.04,2.07
			C94.51,2088.27,95.21,2087.87,95.91,2087.46z M2122.03,1000.79c-0.4-0.74-0.79-1.47-1.19-2.21c-0.87,0.71-1.74,1.43-2.62,2.14
			c0.62,0.58,1.23,1.61,1.86,1.61C2120.72,1002.33,2121.38,1001.35,2122.03,1000.79z M310.01,991.79c-0.58,0.54-1.62,1.09-1.61,1.61
			c0.01,0.58,0.99,1.15,1.54,1.72c0.57-0.56,1.56-1.1,1.57-1.67C311.53,992.9,310.54,992.32,310.01,991.79z M1935.82,2961.1
			c-0.73,0.35-1.45,0.71-2.18,1.06c0.71,0.78,1.42,1.55,2.13,2.33c0.56-0.56,1.56-1.11,1.57-1.67
			C1937.36,2962.25,1936.37,2961.68,1935.82,2961.1z M-185.35,2005.44c-0.45,0.7-1.34,1.49-1.21,2.07c0.15,0.65,1.22,1.12,1.89,1.66
			c0.62-0.97,1.25-1.93,1.87-2.9C-183.65,2006-184.5,2005.72-185.35,2005.44z M4908.34,2001.36c-0.56-0.56-1.12-1.56-1.69-1.57
			c-0.6-0.01-1.21,0.93-1.82,1.46c0.56,0.56,1.12,1.56,1.68,1.57C4907.11,2002.82,4907.73,2001.89,4908.34,2001.36z
			 M1791.71,2005.35c-0.68-0.35-1.37-0.69-2.05-1.04c-0.16,0.41-0.56,1.11-0.44,1.19c0.6,0.45,1.32,0.75,2,1.09
			C1791.38,2006.19,1791.54,2005.77,1791.71,2005.35z M4399.07,1250.88c-0.79-0.08-1.59-0.15-2.38-0.23
			c-0.04,0.41-0.15,1.17-0.1,1.18c0.78,0.15,1.57,0.21,2.36,0.29C4398.99,1251.7,4399.03,1251.29,4399.07,1250.88z M1552.73,985.62
			c-0.35-0.26-0.71-0.52-1.06-0.78c-0.37,0.66-0.79,1.31-1.04,2.01c-0.05,0.13,0.65,0.49,1,0.75
			C1552,986.94,1552.37,986.28,1552.73,985.62z M759.9,1987.14c-0.82-0.16-1.63-0.33-2.45-0.49c-0.01,0.77-0.1,1.56,0.03,2.31
			c0.03,0.16,1.11,0.41,1.23,0.26C759.2,1988.6,759.52,1987.85,759.9,1987.14z M3424.45,1024.48c-0.4-0.7-0.74-1.44-1.25-2.05
			c-0.11-0.13-1.19,0.16-1.21,0.33c-0.09,0.78,0.03,1.59,0.08,2.39C3422.86,1024.93,3423.65,1024.71,3424.45,1024.48z
			 M4936.74,2086.82c-0.66-0.39-1.32-0.78-1.97-1.17c-0.4,0.65-1.19,1.38-1.07,1.92c0.11,0.5,1.21,0.8,1.88,1.18
			C4935.96,2088.11,4936.35,2087.47,4936.74,2086.82z M638.89,212.93c-0.09,0.66-0.17,1.32-0.26,1.98c0.37,0.04,1.06,0.14,1.07,0.1
			c0.15-0.64,0.22-1.3,0.3-1.95C639.64,213.01,639.27,212.97,638.89,212.93z M1259.46,1035.76c-0.31,0.7-0.69,1.37-0.88,2.1
			c-0.04,0.15,0.85,0.75,1,0.66c0.66-0.38,1.2-0.94,1.79-1.43C1260.74,1036.64,1260.11,1036.2,1259.46,1035.76z M1019,1875.67
			c-0.17-0.67-0.35-1.33-0.52-2c-0.37,0.11-1.07,0.26-1.06,0.33c0.09,0.68,0.3,1.34,0.47,2.01
			C1018.26,1875.9,1018.63,1875.79,1019,1875.67z M1382.61,1868.34c-0.32,0.21-0.94,0.51-0.9,0.62c0.2,0.62,0.56,1.2,0.86,1.8
			c0.32-0.22,0.93-0.52,0.9-0.63C1383.27,1869.51,1382.92,1868.93,1382.61,1868.34z M1733.74,1858.17c0.43-0.5,0.93-1.01,1.3-1.6
			c0.06-0.09-0.62-0.83-0.81-0.78c-0.73,0.2-1.4,0.6-2.09,0.92C1732.68,1857.2,1733.21,1857.69,1733.74,1858.17z M3359.6,1036.32
			c-0.11-0.42-0.22-0.85-0.33-1.27c-0.58,0.4-1.16,0.8-1.73,1.2c0.33,0.29,0.66,0.8,1,0.81
			C3358.88,1037.08,3359.25,1036.59,3359.6,1036.32z M1215.47,184.18c-0.81-0.46-1.49-0.93-2.25-1.21
			c-0.16-0.06-0.93,0.71-0.86,0.86c0.31,0.7,0.83,1.32,1.27,1.98C1214.24,185.28,1214.84,184.74,1215.47,184.18z M2567.32,1853.09
			c-0.33,0.57-0.67,1.14-1,1.7c0.39,0.14,1.03,0.48,1.11,0.39c0.43-0.49,0.71-1.09,1.04-1.66
			C2568.09,1853.38,2567.71,1853.23,2567.32,1853.09z M4062.07,1828.03c-0.26,0.68-0.56,1.34-0.71,2.04
			c-0.02,0.09,0.89,0.58,1.09,0.46c0.63-0.37,1.12-0.94,1.67-1.43C4063.44,1828.74,4062.76,1828.39,4062.07,1828.03z
			 M233.78,2187.94c-0.09,0.74-0.18,1.49-0.27,2.23c0.42,0.04,1.2,0.15,1.21,0.1c0.17-0.72,0.23-1.46,0.32-2.2
			C234.63,2188.02,234.21,2187.98,233.78,2187.94z M3277.03,1823.68c-0.36,0.25-1.06,0.6-1.02,0.73c0.22,0.72,0.64,1.38,0.98,2.07
			c0.36-0.25,1.06-0.6,1.02-0.74C3277.79,1825.03,3277.38,1824.36,3277.03,1823.68z M1406.91,1819.53c-0.57-0.3-1.13-0.6-1.7-0.9
			c-0.14,0.35-0.49,0.93-0.39,1.01c0.49,0.38,1.09,0.64,1.66,0.94C1406.62,1820.23,1406.77,1819.88,1406.91,1819.53z
			 M2124.27,2213.94c-0.58-0.39-1.17-0.78-1.75-1.18c-0.23,0.68-0.55,1.34-0.65,2.03c-0.03,0.2,0.81,0.72,0.87,0.67
			C2123.3,2215.01,2123.77,2214.47,2124.27,2213.94z M649.44,2222.67c-0.37,0.65-0.74,1.29-1.11,1.94c0.43,0.16,1.17,0.55,1.25,0.44
			c0.48-0.57,0.79-1.26,1.16-1.91C650.32,2222.99,649.88,2222.83,649.44,2222.67z M3367.06,143c-0.28-0.33-0.49-0.84-0.85-0.96
			c-0.37-0.12-0.87,0.15-1.31,0.25c0.42,0.55,0.83,1.09,1.25,1.64C3366.45,143.63,3366.76,143.32,3367.06,143z M4723.85,1811.2
			c-0.64-0.34-1.29-0.68-1.93-1.03c-0.16,0.4-0.55,1.06-0.44,1.14c0.56,0.44,1.24,0.72,1.88,1.07
			C4723.53,1812,4723.69,1811.6,4723.85,1811.2z M4511.26,230.06c0.38-0.45,0.89-0.96,1.24-1.55c0.06-0.1-0.61-0.83-0.79-0.78
			c-0.71,0.2-1.37,0.6-2.05,0.92C4510.2,229.12,4510.73,229.59,4511.26,230.06z M3117.83,1780.15c-0.61-0.3-1.23-0.6-1.84-0.9
			c-0.14,0.37-0.48,0.99-0.38,1.06c0.53,0.39,1.17,0.64,1.77,0.94C3117.53,1780.89,3117.68,1780.52,3117.83,1780.15z
			 M250.04,1773.67c-0.67-0.37-1.35-0.75-2.02-1.12c-0.39,0.65-1.2,1.4-1.06,1.92c0.13,0.51,1.23,0.8,1.91,1.18
			C249.26,1775,249.65,1774.34,250.04,1773.67z M5127.43,2245.85c-0.26-0.27-0.68-0.81-0.75-0.77c-0.57,0.31-1.08,0.73-1.61,1.12
			c0.26,0.27,0.68,0.81,0.75,0.77C5126.39,2246.67,5126.9,2246.25,5127.43,2245.85z M-197.21,1770.02c0.71-0.37,1.43-0.74,2.14-1.11
			c-0.4-0.67-0.67-1.74-1.22-1.89c-0.56-0.15-1.39,0.61-2.1,0.97C-197.99,1768.66-197.6,1769.34-197.21,1770.02z M4060.39,232.57
			c-0.42,0.67-1.26,1.42-1.13,1.97c0.13,0.53,1.25,0.85,1.94,1.26c0.41-0.66,1.26-1.42,1.12-1.96
			C4062.18,233.31,4061.07,232.99,4060.39,232.57z M4619.53,1705.68c-0.6,0.46-1.2,0.91-1.81,1.37c0.3,0.31,0.79,0.93,0.87,0.89
			c0.66-0.37,1.24-0.86,1.84-1.32C4620.13,1706.31,4619.83,1705.99,4619.53,1705.68z M4064.93,2275c-0.31-0.28-0.61-0.78-0.94-0.79
			c-0.33-0.02-0.69,0.44-1.03,0.69c0.52,0.43,1.04,0.86,1.56,1.29C4064.66,2275.79,4064.8,2275.39,4064.93,2275z M3096.44,120.83
			c-0.37,0.25-1.09,0.6-1.05,0.72c0.24,0.73,0.66,1.4,1.02,2.09c0.37-0.25,1.1-0.6,1.06-0.73
			C3097.23,122.19,3096.81,121.51,3096.44,120.83z M2078.75,2299.4c-0.63,0.57-1.27,1.13-1.9,1.7c0.6,0.59,1.18,1.61,1.82,1.65
			c0.59,0.03,1.24-0.99,1.87-1.55C2079.94,2300.6,2079.35,2300,2078.75,2299.4z M4761.89,2328.14c-0.37,0.63-0.73,1.27-1.1,1.9
			c0.43,0.15,1.15,0.53,1.24,0.43c0.47-0.55,0.78-1.23,1.15-1.86C4762.76,2328.45,4762.33,2328.3,4761.89,2328.14z M1672.87,1705.19
			c0.25-0.31,0.5-0.62,0.75-0.92c-0.64-0.32-1.26-0.7-1.93-0.91c-0.13-0.04-0.48,0.56-0.73,0.87
			C1671.59,1704.55,1672.23,1704.87,1672.87,1705.19z M3832.17,251.4c-0.57-0.5-1.18-1.45-1.73-1.42c-0.6,0.03-1.16,0.96-1.74,1.49
			c0.57,0.54,1.13,1.09,1.7,1.63C3830.96,252.57,3831.53,252.02,3832.17,251.4z M3458.75,2339.03c-0.42-0.49-0.87-1.01-1.33-1.54
			c-0.31,0.27-0.91,0.72-0.87,0.78c0.39,0.58,0.88,1.1,1.34,1.63C3458.17,2339.62,3458.46,2339.33,3458.75,2339.03z
			 M1949.92,2356.18c-0.67-0.4-1.34-0.8-2.01-1.2c-0.4,0.66-1.19,1.39-1.08,1.96c0.09,0.49,1.21,0.81,1.88,1.2
			C1949.12,2357.48,1949.52,2356.83,1949.92,2356.18z M2919.62,1636.62c-0.77-0.19-1.54-0.37-2.32-0.56c-0.02,0.77-0.11,1.54,0,2.29
			c0.03,0.16,1.08,0.42,1.18,0.29C2918.95,1638.03,2919.26,1637.3,2919.62,1636.62z M749.88,2382.34c-0.7-0.36-1.39-0.78-2.13-1.03
			c-0.12-0.04-0.51,0.65-0.78,1c0.7,0.37,1.39,0.79,2.13,1.05C749.21,2383.4,749.61,2382.7,749.88,2382.34z M642.01,2387.25
			c0.59,0.48,1.16,1,1.82,1.39c0.09,0.05,0.79-0.52,0.88-0.88c0.09-0.33-0.31-1.1-0.4-1.09
			C643.53,2386.79,642.77,2387.04,642.01,2387.25z M793.6,123.38c-0.71-0.23-1.43-0.46-2.14-0.69c-0.1,0.68-0.27,1.37-0.24,2.05
			c0.01,0.14,0.96,0.47,1.09,0.34C792.82,124.6,793.18,123.96,793.6,123.38z M2202.98,2394.21c-0.6-0.38-1.2-0.76-1.8-1.15
			c-0.22,0.68-0.53,1.36-0.6,2.06c-0.02,0.21,0.83,0.73,0.88,0.69C2202.01,2395.33,2202.49,2394.76,2202.98,2394.21z
			 M1739.05,2414.07c-0.25,0.67-0.54,1.34-0.69,2.03c-0.02,0.08,0.88,0.56,1.09,0.44c0.62-0.36,1.11-0.93,1.65-1.42
			C1740.41,2414.77,1739.74,2414.42,1739.05,2414.07z M5004.35,2425.35c-0.57,0.42-1.14,0.83-1.71,1.25
			c0.28,0.29,0.73,0.87,0.81,0.83c0.62-0.33,1.17-0.78,1.73-1.2C5004.91,2425.94,5004.63,2425.65,5004.35,2425.35z M1874.9,392.81
			c0.61-0.42,1.28-0.79,1.78-1.31c0.15-0.15-0.22-1.08-0.35-1.08c-0.74,0-1.47,0.17-2.21,0.29
			C1874.38,391.41,1874.64,392.11,1874.9,392.81z M4864.64,732.5c0.03-0.41,0.23-0.95,0.03-1.2c-0.22-0.28-0.8-0.31-1.23-0.45
			c-0.04,0.64-0.07,1.29-0.11,1.93C4863.77,732.69,4864.2,732.6,4864.64,732.5z M2248.49,1556.67c0.13,0.36,0.3,1.05,0.37,1.04
			c0.74-0.09,1.46-0.3,2.19-0.47c-0.13-0.37-0.29-1.06-0.37-1.05C2249.95,1556.28,2249.22,1556.48,2248.49,1556.67z M3951.6,1547.59
			c-0.33,0.57-0.66,1.14-0.99,1.72c0.39,0.14,1.04,0.48,1.12,0.38c0.43-0.5,0.71-1.11,1.04-1.68
			C3952.38,1547.87,3951.99,1547.73,3951.6,1547.59z M4183.09,2474.31c0-0.43,0-0.84,0-1.26c-0.81,0.06-1.62,0.09-2.41,0.22
			c-0.06,0.01,0.03,0.78,0.05,1.2C4181.54,2474.42,4182.34,2474.36,4183.09,2474.31z M528.33,2484.9c-0.24-0.32-0.58-0.93-0.71-0.9
			c-0.69,0.2-1.34,0.56-1.99,0.86c0.24,0.32,0.58,0.93,0.71,0.89C527.03,2485.57,527.67,2485.21,528.33,2484.9z M664.55,1544.71
			c-0.2,0.75-0.49,1.49-0.54,2.25c-0.01,0.19,1,0.69,1.12,0.59c0.61-0.51,1.09-1.18,1.62-1.79
			C666.02,1545.41,665.29,1545.06,664.55,1544.71z M4842.04,1540.62c-0.36,0.25-1.06,0.6-1.02,0.73c0.23,0.7,0.64,1.35,0.99,2.02
			c0.36-0.66,0.79-1.3,1.03-2C4843.09,1541.24,4842.4,1540.88,4842.04,1540.62z M3002.85,1526.2c-0.29-0.3-0.75-0.89-0.84-0.84
			c-0.63,0.34-1.19,0.8-1.77,1.23c0.29,0.29,0.75,0.88,0.83,0.84C3001.72,1527.09,3002.27,1526.63,3002.85,1526.2z M2341.6,343.06
			c-0.25-0.34-0.6-1.01-0.72-0.98c-0.74,0.22-1.43,0.61-2.13,0.93c0.25,0.34,0.61,1.02,0.74,0.98
			C2340.22,343.78,2340.9,343.39,2341.6,343.06z M5018.98,1522.63c0.68-0.35,1.35-0.71,2.03-1.06c-0.37-0.63-0.65-1.69-1.15-1.78
			c-0.58-0.12-1.35,0.59-2.03,0.94C5018.21,1521.37,5018.59,1522,5018.98,1522.63z M3018.82,1134.09c-0.66-0.36-1.42-1.09-1.96-0.96
			c-0.51,0.12-0.79,1.14-1.17,1.76c0.67,0.36,1.41,1.07,1.98,0.96C3018.16,1135.76,3018.45,1134.72,3018.82,1134.09z
			 M4277.12,2540.11c0.12,0.36,0.29,1.05,0.36,1.05c0.74-0.09,1.46-0.29,2.19-0.46c-0.12-0.37-0.28-1.07-0.35-1.06
			C4278.58,2539.73,4277.85,2539.93,4277.12,2540.11z M-6.37,695.6c-0.66-0.37-1.44-1.14-1.96-1.01c-0.53,0.13-1.24,1.26-1.1,1.76
			c0.15,0.52,1.22,0.79,1.88,1.17C-7.16,696.88-6.76,696.25-6.37,695.6z M3350.16,1148.96c-0.38,0.12-1.08,0.28-1.07,0.35
			c0.09,0.69,0.3,1.37,0.48,2.06c0.38-0.12,1.09-0.27,1.08-0.34C3350.56,1150.33,3350.35,1149.64,3350.16,1148.96z M1924.01,1168.64
			c-0.11,0.36-0.23,0.76-0.36,1.15c0.65,0.01,1.29,0.03,1.94,0.04c-0.11-0.4-0.1-0.93-0.37-1.15
			C1924.99,1168.49,1924.44,1168.64,1924.01,1168.64z M1262.04,2574.44c-0.39-0.64-0.68-1.68-1.21-1.81
			c-0.54-0.14-1.33,0.61-2.02,0.97c0.39,0.65,0.66,1.7,1.2,1.84C1260.55,2575.58,1261.35,2574.82,1262.04,2574.44z M2873.92,1466.36
			c0.68-0.37,1.82-0.64,1.93-1.12c0.13-0.56-0.65-1.31-1.03-1.98c-0.69,0.38-1.78,0.64-1.94,1.16
			C2872.73,1464.92,2873.53,1465.7,2873.92,1466.36z M3166.33,82.31c-0.47-0.6-0.88-1.28-1.46-1.77c-0.18-0.15-1.22,0.23-1.22,0.35
			c0.01,0.74,0.21,1.49,0.35,2.23C3164.78,82.86,3165.55,82.59,3166.33,82.31z M2819.32,1171.44c-0.42-0.54-0.78-1.15-1.3-1.59
			c-0.16-0.14-1.09,0.2-1.09,0.31c0.01,0.67,0.19,1.34,0.31,2.01C2817.93,1171.94,2818.63,1171.69,2819.32,1171.44z
			 M2258.63,1441.29c0.27-0.33,0.53-0.66,0.8-0.98c-0.68-0.34-1.34-0.74-2.05-0.98c-0.13-0.04-0.5,0.6-0.76,0.93
			C2257.28,1440.6,2257.96,1440.95,2258.63,1441.29z M4541.02,1437.58c-0.4-0.7-0.8-1.4-1.2-2.1c-0.72,0.39-1.88,0.66-2.04,1.2
			c-0.16,0.55,0.66,1.36,1.05,2.06C4539.56,1438.36,4540.29,1437.97,4541.02,1437.58z M493.76,2617.84
			c0.29-0.25,0.88-0.65,0.83-0.73c-0.32-0.56-0.77-1.06-1.18-1.58c-0.29,0.25-0.87,0.65-0.82,0.73
			C492.91,2616.82,493.35,2617.32,493.76,2617.84z M3285.27,1422.53c-0.17,0.77-0.44,1.53-0.46,2.3c0,0.21,1.01,0.69,1.11,0.6
			c0.6-0.54,1.07-1.21,1.58-1.84C3286.75,1423.23,3286.01,1422.88,3285.27,1422.53z M1393.59,567.49c-0.78-0.09-1.55-0.19-2.33-0.28
			c-0.04,0.4-0.16,1.15-0.1,1.16c0.75,0.17,1.52,0.23,2.28,0.32C1393.49,568.29,1393.54,567.89,1393.59,567.49z M638.24,2642.61
			c-0.76-0.31-1.51-0.69-2.3-0.87c-0.16-0.04-0.82,0.84-0.72,1c0.42,0.66,1.03,1.2,1.57,1.78
			C637.27,2643.88,637.75,2643.25,638.24,2642.61z M4496.38,1399.54c0.44-0.11,0.89-0.23,1.33-0.34c-0.43-0.54-0.87-1.08-1.3-1.62
			c-0.3,0.32-0.82,0.64-0.83,0.97C4495.58,1398.88,4496.1,1399.21,4496.38,1399.54z M4494.91,1387.67c-0.13-0.39-0.32-1.12-0.4-1.11
			c-0.77,0.1-1.53,0.32-2.29,0.5c0.57,0.49,1.11,1.02,1.74,1.43C4494.05,1388.54,4494.59,1387.96,4494.91,1387.67z M3625.96,520.68
			c-0.72-0.4-1.53-1.21-2.14-1.09c-0.55,0.11-1.32,1.35-1.17,1.88c0.15,0.55,1.42,1.27,1.97,1.13
			C3625.21,522.45,3625.53,521.37,3625.96,520.68z M3077.1,505.99c-0.48-0.6-0.96-1.19-1.43-1.79c-0.34,0.29-1.01,0.76-0.95,0.85
			c0.38,0.65,0.9,1.22,1.38,1.82C3076.43,506.58,3076.77,506.29,3077.1,505.99z M3600.35,501.3c-0.56-0.5-1.11-1.38-1.65-1.38
			c-0.71,0.01-1.42,0.7-2.13,1.1c0.53,0.51,1.05,1.42,1.58,1.43C3598.85,502.45,3599.56,501.75,3600.35,501.3z M4032.35,438.88
			c0.52-0.55,1.49-1.14,1.48-1.72c-0.01-0.55-1.02-1.51-1.61-1.52c-0.56-0.01-1.15,0.96-1.73,1.5
			C4031.06,437.69,4031.64,438.22,4032.35,438.88z M2472.32,1226.17c-0.27-0.28-0.7-0.83-0.78-0.79c-0.59,0.32-1.11,0.75-1.65,1.15
			c0.27,0.28,0.7,0.83,0.78,0.79C2471.26,1227.01,2471.78,1226.57,2472.32,1226.17z M2923.83,1376.95c0-0.4,0-0.8,0-1.19
			c-0.76,0.05-1.53,0.07-2.28,0.19c-0.05,0.01,0.02,0.73,0.04,1.13C2922.35,1377.04,2923.11,1376.99,2923.83,1376.95z
			 M1186.22,2711.65c-0.55,0.41-1.11,0.81-1.66,1.22c0.27,0.28,0.71,0.85,0.8,0.81c0.6-0.32,1.13-0.77,1.69-1.17
			C1186.77,2712.22,1186.49,2711.94,1186.22,2711.65z M2955.67,1370.82c-0.16,0.72-0.32,1.45-0.48,2.17
			c0.72,0.01,1.46,0.1,2.15-0.02c0.17-0.03,0.42-0.99,0.27-1.1C2957.04,1371.43,2956.33,1371.15,2955.67,1370.82z M-22.9,2754.67
			c-0.66-0.57-1.3-1.55-1.94-1.55c-0.61,0-1.71,1.04-1.69,1.61c0.01,0.61,1.06,1.2,1.66,1.8
			C-24.26,2755.95-23.64,2755.37-22.9,2754.67z M621.75,2754.62c0.62,0.38,1.22,0.82,1.89,1.08c0.16,0.06,0.88-0.57,0.83-0.69
			c-0.26-0.6-0.68-1.13-1.05-1.68C622.86,2753.76,622.3,2754.19,621.75,2754.62z M4213.71,291.86c-0.15-0.41-0.29-0.82-0.44-1.23
			c-0.66,0.32-1.36,0.59-1.95,1.01c-0.11,0.08,0.25,0.76,0.4,1.17C4212.39,292.49,4213.05,292.18,4213.71,291.86z M4567.26,1328
			c-0.42,0.68-1.29,1.48-1.14,2.02c0.16,0.56,1.3,0.87,2.01,1.29c0.42-0.69,1.26-1.47,1.14-2.06
			C4569.16,1328.72,4567.98,1328.41,4567.26,1328z M3935.77,1317.83c0.14,0.37,0.32,1.06,0.4,1.04c0.74-0.1,1.47-0.33,2.2-0.51
			c-0.14-0.37-0.32-1.06-0.4-1.05C3937.22,1317.42,3936.5,1317.64,3935.77,1317.83z M3833.22,1231.47c0.45,0,0.89,0,1.33,0
			c-0.05-0.76-0.07-1.53-0.21-2.28c-0.01-0.06-0.83,0.02-1.27,0.03C3833.12,1229.99,3833.17,1230.75,3833.22,1231.47z
			 M3025.7,294.96c-0.6-0.51-1.19-1.41-1.79-1.42c-0.59-0.01-1.2,0.89-1.8,1.39c0.79,0.65,1.59,1.29,2.38,1.94
			C3024.89,296.23,3025.29,295.6,3025.7,294.96z M4923.32,1268c-0.46,0.66-0.99,1.29-1.32,2c-0.07,0.16,0.67,0.92,0.83,0.87
			c0.72-0.26,1.36-0.7,2.03-1.08C4924.34,1269.18,4923.83,1268.59,4923.32,1268z M1846,2946.25c-0.66-0.41-1.29-0.88-2-1.17
			c-0.17-0.07-0.94,0.6-0.89,0.72c0.27,0.65,0.71,1.23,1.09,1.84C1844.8,2947.18,1845.4,2946.72,1846,2946.25z M1890.02,1258.96
			c0.54-0.59,1.5-1.17,1.49-1.74c-0.01-0.56-1-1.11-1.55-1.66c-0.57,0.53-1.6,1.06-1.6,1.59
			C1888.34,1257.7,1889.32,1258.26,1890.02,1258.96z M1950.88,2957.38c-0.32,0.25-0.81,0.46-0.91,0.77
			c-0.1,0.33,0.18,0.76,0.29,1.15c0.52-0.38,1.04-0.77,1.56-1.15C1951.5,2957.9,1951.19,2957.64,1950.88,2957.38z M4435.04,2959.46
			c-0.2-0.69-0.4-1.38-0.6-2.08c-0.6,0.37-1.26,0.67-1.76,1.14c-0.15,0.14,0.13,1.05,0.27,1.06
			C4433.64,2959.65,4434.34,2959.53,4435.04,2959.46z M184.51,1257.36c0-0.44,0-0.87,0-1.3c-0.82,0.06-1.65,0.1-2.45,0.25
			c-0.07,0.01,0.03,0.8,0.05,1.23C182.93,1257.48,183.75,1257.41,184.51,1257.36z M3315.16,2968.46c0.23-0.72,0.5-1.43,0.63-2.17
			c0.01-0.08-0.74-0.29-1.14-0.44c-0.24,0.72-0.51,1.44-0.66,2.18C3313.99,2968.11,3314.75,2968.31,3315.16,2968.46z M5234.08,377.8
			c-0.41,0.54-0.82,1.07-1.22,1.61c0.7,0.22,1.38,0.52,2.1,0.61c0.2,0.03,0.75-0.76,0.7-0.81
			C5235.19,378.7,5234.63,378.26,5234.08,377.8z M598.19,2040.67c-0.13-0.37-0.3-1.07-0.38-1.06c-0.75,0.1-1.49,0.31-2.23,0.49
			c0.13,0.37,0.3,1.08,0.37,1.07C596.71,2041.07,597.45,2040.86,598.19,2040.67z"/>
		<path class="st1" d="M1931.92-0.19c-1.39,1.8-2.77,3.6-4.16,5.4c-0.56-1.8-1.11-3.6-1.67-5.4
			C1928.03-0.19,1929.98-0.19,1931.92-0.19z"/>
		<path class="st1" d="M3360.05-0.19c-3.89,4.69-7.77,4.91-11.66,0C3352.27-0.19,3356.16-0.19,3360.05-0.19z"/>
		<path class="st1" d="M4541.71,262.26c-5.27,3.99-7.92,7.25-11.31,8.27c-4.58,1.37-9.33-3.14-9.26-7.89
			c0.07-4.69,2.76-8.59,7.58-7.9C4532.5,255.28,4535.84,258.7,4541.71,262.26z"/>
		<path class="st1" d="M1990.97,2585.33c0.22,7.06-4.4,11.83-9.15,10.54c-3.01-0.82-6.48-3.91-7.49-6.72
			c-1.59-4.4,3.41-9.83,8.15-8.9C1985.98,2580.94,1988.96,2584.05,1990.97,2585.33z"/>
		<path class="st1" d="M3621.89,2448.35c3.69,4.9,7.18,7.61,7.8,10.83c0.86,4.44-2.47,7.58-7.51,8.04c-5,0.45-10.01-3.8-8.67-8.28
			C3614.48,2455.71,3617.94,2453.15,3621.89,2448.35z"/>
		<path class="st1" d="M945.87,1252.77c-4.24-5.12-8.14-7.83-8.48-10.9c-0.26-2.32,3.56-6.45,6.42-7.36c4.71-1.5,9.2,1.49,9.03,6.24
			C952.72,1243.98,949.32,1247.1,945.87,1252.77z"/>
		<path class="st1" d="M1242.7,1520.08c-4.88,3.71-7.31,6.93-10.31,7.54c-5.05,1.01-8.7-2.56-8.05-7.12
			c0.39-2.75,4.24-7.04,6.55-7.05C1234.08,1513.43,1237.27,1516.81,1242.7,1520.08z"/>
		<path class="st1" d="M2366.39,2220.15c3.56,5.25,6.59,7.81,6.94,10.68c0.53,4.31-3.29,6.95-7.47,5.89
			c-2.53-0.64-6.01-3.96-6.01-6.08C2359.85,2227.98,2362.96,2225.32,2366.39,2220.15z"/>
		<path class="st1" d="M2293.88,1220.88c-4.6,2.8-7.02,5.45-9.59,5.58c-5.21,0.27-7.89-3.59-6.88-8.02c0.45-1.98,4.74-4.82,6.7-4.45
			C2287.06,1214.55,2289.49,1217.59,2293.88,1220.88z"/>
		<path class="st1" d="M1327.31,1347.92c-5.12,3.36-8.04,6.77-10.48,6.48c-2.69-0.32-4.94-4.04-7.38-6.27
			c2.35-2.3,4.48-6.12,7.11-6.46C1319.04,1341.35,1322.05,1344.67,1327.31,1347.92z"/>
		<path class="st1" d="M3749.99,968.45c-4.52,2.92-7.19,5.91-10,6.03c-2.01,0.08-6.29-4.34-5.86-5.61c0.93-2.72,3.91-5.8,6.71-6.58
			C3742.56,961.81,3745.51,965.28,3749.99,968.45z"/>
		<path class="st1" d="M2194.15,786.65c-2.97-4.2-6.15-6.74-5.85-8.83c0.31-2.24,3.92-5.62,6.06-5.61c2.11,0.01,5.64,3.53,5.87,5.76
			C2200.46,780.09,2197.22,782.54,2194.15,786.65z"/>
		<path class="st1" d="M1147.33,1289.92c-3.67,2.7-5.85,5.44-8.4,5.79c-1.68,0.23-3.87-2.98-5.84-4.64
			c1.99-2.11,3.63-5.11,6.11-5.98C1140.64,1284.57,1143.41,1287.47,1147.33,1289.92z"/>
		<path class="st1" d="M3050.58,2663.43c-2.62-2.57-5.63-4.2-5.74-5.99c-0.11-1.94,2.47-4.03,3.87-6.06
			c2.27,1.66,5.34,2.95,6.46,5.14C3055.74,2657.61,3052.72,2660.37,3050.58,2663.43z"/>
		<path class="st1" d="M1147.37,153.77c3.13-2.37,5.22-5.18,7.17-5.09c1.95,0.09,5.12,3.02,5.21,4.82c0.09,1.69-3.03,4.8-4.96,4.96
			C1152.84,158.62,1150.62,155.96,1147.37,153.77z"/>
		<path class="st1" d="M2986.76,367.24c-3.12,2.65-5.08,5.59-6.86,5.49c-1.94-0.11-4.37-2.79-5.24-4.86
			c-0.39-0.92,2.51-4.4,3.94-4.41C2980.83,363.45,2983.07,365.4,2986.76,367.24z"/>
		<path class="st1" d="M4687.94,1858.69c-2.2-3.18-4.91-5.39-4.66-7.23c0.25-1.84,3.58-4.67,5.37-4.55c1.86,0.12,4.82,3.25,4.85,5.1
			C4693.54,1853.85,4690.55,1855.75,4687.94,1858.69z"/>
		<path class="st1" d="M4713.25,1650.78c2.26,3.1,5.03,5.25,4.8,7.03c-0.25,1.89-3.47,4.85-5.21,4.73
			c-1.91-0.12-4.91-3.14-5.03-5.03C4707.69,1655.72,4710.69,1653.75,4713.25,1650.78z"/>
		<path class="st1" d="M2214.01,1800.83c2.37,3.01,5.27,5.11,5.04,6.83c-0.25,1.91-3.35,3.48-5.21,5.2c-1.79-1.76-4.84-3.43-5-5.32
			C2208.68,1805.77,2211.59,1803.76,2214.01,1800.83z"/>
		<path class="st1" d="M1915.35,1934.87c-3.59,2.04-5.73,4.12-7.98,4.23c-1.45,0.07-4.61-3.24-4.29-4.15
			c0.76-2.14,3.03-5.03,4.93-5.2C1909.88,1929.59,1912.03,1932.41,1915.35,1934.87z"/>
		<path class="st1" d="M2475.64,1720.02c2.05,3.48,4.16,5.56,4.22,7.68c0.04,1.38-3.52,4.31-4.4,3.97c-2.23-0.85-5.11-3-5.34-4.89
			C2469.92,1725.13,2472.96,1723.11,2475.64,1720.02z"/>
		<path class="st1" d="M4171.61,2300.35c-2.18,1.08-4.36,2.91-6.55,2.93c-1.21,0.01-3.86-3.87-3.43-4.5
			c1.26-1.85,3.58-3.74,5.77-4.14c2.01-0.36,4.39,1.2,6.61,1.92C4173.21,2297.83,4172.41,2299.09,4171.61,2300.35z"/>
		<path class="st1" d="M2560.66,1473.28c-3.18,2.14-5.14,4.32-7.36,4.61c-1.31,0.17-3.05-2.67-4.6-4.16
			c1.84-1.71,3.43-4.13,5.63-4.85C2555.48,1468.5,2557.7,1471.12,2560.66,1473.28z"/>
		<path class="st1" d="M490.27,2577.6c1.97,2.5,4.24,4.11,4.21,5.68c-0.04,1.59-2.35,3.13-3.67,4.69c-1.77-1.6-4.21-2.95-5.02-4.91
			C485.4,2582.15,488.17,2580.05,490.27,2577.6z"/>
		<path class="st1" d="M863.32,2508.63c-2.13,0.81-4.33,2.37-6.37,2.21c-1.82-0.15-3.47-2.21-5.2-3.42c1.29-1.62,2.33-4.2,3.95-4.59
			c1.52-0.37,3.66,1.58,5.52,2.5C861.92,2506.43,862.62,2507.53,863.32,2508.63z"/>
		<path class="st1" d="M4989.15,1234.31c-0.83-2.03-2.45-4.13-2.27-6.08c0.16-1.72,2.16-4.39,3.64-4.59c1.51-0.2,4.4,1.87,4.8,3.4
			c0.38,1.44-1.7,3.47-2.69,5.23C4991.47,1232.95,4990.31,1233.63,4989.15,1234.31z"/>
		<path class="st1" d="M1258.8,66.89c2.26-2.01,3.89-4.29,4.75-4.05c1.87,0.52,3.71,2.11,4.77,3.74c0.32,0.49-2.09,3.69-3.08,3.61
			C1263.36,70.04,1261.6,68.44,1258.8,66.89z"/>
		<path class="st1" d="M4297.92,2962.83c-1.68-2.85-3.74-4.79-3.4-6.19c0.37-1.5,3.12-3.57,4.62-3.42c1.44,0.14,3.64,2.81,3.61,4.34
			C4302.72,2959.02,4300.25,2960.43,4297.92,2962.83z"/>
		<path class="st1" d="M2244.79,1677.93c2.17,2.83,4.54,4.59,4.31,5.99c-0.24,1.5-2.73,3.16-4.59,3.72
			c-0.79,0.24-3.55-2.2-3.46-3.27C2241.2,1682.58,2242.93,1680.92,2244.79,1677.93z"/>
		<path class="st1" d="M4555.76,2003.23c-3.15,1.64-5.23,3.59-6.67,3.23c-1.45-0.37-2.8-2.96-3.08-4.74c-0.12-0.8,2.7-3,3.77-2.78
			C4551.56,1999.32,4553.01,2001.14,4555.76,2003.23z"/>
		<path class="st1" d="M767.83,417.12c2.21,1.96,4.59,3.26,4.42,4.09c-0.36,1.79-2.03,3.33-3.17,4.97
			c-1.44-0.91-4.03-1.79-4.06-2.74C764.98,421.71,766.46,419.95,767.83,417.12z"/>
		<path class="st1" d="M3754.9,2074.67c-1.84,0.51-3.81,1.67-5.48,1.36c-1.82-0.34-3.68-1.81-4.82-3.28
			c-0.34-0.45,1.7-3.66,2.62-3.65c1.85,0.02,3.67,1.4,5.51,2.21C3753.46,2072.43,3754.18,2073.55,3754.9,2074.67z"/>
		<path class="st1" d="M1893.43,1380.01c-2.19,2.2-3.31,4.25-4.63,4.38c-1.33,0.13-3.75-1.48-4.03-2.67
			c-0.26-1.1,1.45-3.39,2.77-3.81C1888.76,1377.52,1890.6,1378.91,1893.43,1380.01z"/>
		<path class="st1" d="M182.34,28.27c-2.78,1.47-4.82,3.26-5.65,2.85c-1.72-0.86-2.8-2.89-4.15-4.44c1.37-1.05,3.05-3.17,4.06-2.91
			C178.4,24.24,179.78,26.14,182.34,28.27z"/>
		<path class="st1" d="M781.41,284.61c-1.78,0.83-3.56,2.28-5.32,2.27c-1.02-0.01-2.02-2.37-3.03-3.68
			c1.65-1.13,3.17-2.86,4.99-3.22c1.59-0.31,3.51,0.91,5.29,1.46C782.69,282.49,782.05,283.55,781.41,284.61z"/>
		<path class="st1" d="M1686.69,1676.09c-2.43,1.48-4.56,3.42-5.2,3.04c-1.64-0.96-2.62-2.95-3.87-4.53
			c1.5-0.85,3.07-2.45,4.49-2.34C1683.44,1672.37,1684.63,1674.27,1686.69,1676.09z"/>
		<path class="st1" d="M2957.4,2230.91c1.66,2.07,3.49,3.36,3.47,4.62c-0.02,1.31-1.83,2.6-2.86,3.89c-1.53-1.33-3.43-2.46-4.37-4.1
			C2953.34,2234.8,2955.61,2232.95,2957.4,2230.91z"/>
		<path class="st1" d="M1542.98,111.83c-2.44,1.29-4.62,3.05-5.22,2.65c-1.55-1.03-2.4-3.01-3.53-4.61c1.51-0.8,3.12-2.35,4.51-2.18
			C1540.01,107.84,1541.05,109.84,1542.98,111.83z"/>
		<path class="st1" d="M4227.13,78.37c-2.37,1.5-4.42,3.43-5.07,3.07c-1.66-0.92-2.7-2.85-3.98-4.38c1.48-0.89,3-2.52,4.44-2.47
			C4223.81,74.63,4225.02,76.54,4227.13,78.37z"/>
		<path class="st1" d="M3294.1,2566.51c1.25,2.77,2.72,4.47,2.37,5.7c-0.35,1.19-2.56,1.89-3.95,2.81c-0.93-1.34-2.66-2.73-2.56-4
			C3290.05,2569.77,3292,2568.66,3294.1,2566.51z"/>
		<path class="st1" d="M3577.23,398.76c-1.5,0.61-3.25,1.97-4.45,1.63c-1.21-0.35-1.89-2.39-2.8-3.69c1.37-0.86,2.69-2.3,4.14-2.44
			c1.73-0.16,3.58,0.79,5.38,1.26C3578.74,396.6,3577.99,397.68,3577.23,398.76z"/>
		<path class="st1" d="M4881.2,2163.04c-2.67,1.84-4.15,3.64-5.31,3.47c-1.3-0.19-2.68-2.03-3.27-3.44
			c-0.23-0.54,1.65-2.71,2.48-2.66C4876.67,2160.49,4878.17,2161.64,4881.2,2163.04z"/>
		<path class="st1" d="M1453.05,976.22c1.94,2.88,3.69,4.44,3.92,6.18c0.14,1.06-2.48,3.59-3.13,3.38c-1.85-0.59-4.3-2.04-4.64-3.54
			C1448.89,980.91,1451.11,979.06,1453.05,976.22z"/>
		<path class="st1" d="M2522.22,2009.67c-3.48-3.44-5.79-5.74-8.35-8.26c1.94-1.04,2.94-1.99,3.46-1.79
			C2521.11,2001.04,2523.65,2003.29,2522.22,2009.67z"/>
		<path class="st1" d="M3253.97,1930.27c2.07,2.12,4.32,3.52,4.11,4.39c-0.41,1.69-1.97,3.39-3.54,4.4c-0.46,0.3-3.7-1.78-3.67-2.7
			C3250.93,1934.64,3252.47,1932.99,3253.97,1930.27z"/>
		<path class="st1" d="M2837.26,255.34c-2.21,1.52-4.06,3.45-4.72,3.13c-1.65-0.79-2.76-2.61-4.08-4.01
			c1.38-0.93,2.76-2.57,4.15-2.58C2833.86,251.88,2835.13,253.66,2837.26,255.34z"/>
		<path class="st1" d="M2539.67,1782.15c-1.49,0.63-3.19,2.01-4.41,1.7c-1.2-0.3-1.93-2.32-2.86-3.58c1.35-0.89,2.65-2.38,4.08-2.5
			c1.65-0.14,3.41,0.93,5.13,1.48C2540.96,1780.21,2540.32,1781.18,2539.67,1782.15z"/>
		<path class="st1" d="M4665.87,2968.28c1.6,1.98,3.27,3.35,3.02,3.89c-0.64,1.34-2.15,2.31-3.32,3.42
			c-0.93-0.89-2.74-1.91-2.62-2.64C4663.19,2971.55,4664.51,2970.32,4665.87,2968.28z"/>
		<path class="st1" d="M1042.41,289.48c1.85,2.6,3.58,3.98,3.39,5.05c-0.21,1.16-2.07,2.34-3.48,2.87
			c-0.48,0.18-2.54-1.56-2.51-2.37C1039.86,293.65,1041,292.3,1042.41,289.48z"/>
		<path class="st1" d="M4839.92,1471.38c1.03,1.86,2.16,3.14,2.3,4.51c0.06,0.58-2.43,2.15-2.94,1.88
			c-1.32-0.71-2.17-2.19-3.22-3.36C4837.05,1473.63,4838.04,1472.85,4839.92,1471.38z"/>
		<path class="st1" d="M3064.29,2699.51c-1.05-2.95-2.37-4.79-1.86-5.75c0.57-1.08,2.76-1.71,4.3-1.83c0.55-0.05,2.05,2.2,1.78,2.95
			C3068.02,2696.21,3066.5,2697.19,3064.29,2699.51z"/>
		<path class="st1" d="M2748.25,2658.28c1.51,2.79,2.89,4.17,2.61,5.09c-0.43,1.39-1.87,2.66-3.21,3.53
			c-0.31,0.2-2.83-1.53-2.77-2.24C2745.01,2663.23,2746.22,2661.9,2748.25,2658.28z"/>
		<path class="st1" d="M4511.19,2151.45c1.54,1.94,3.15,3.3,2.9,3.79c-0.67,1.3-2.15,2.21-3.31,3.28c-0.88-0.89-2.6-1.9-2.47-2.64
			C4508.54,2154.55,4509.85,2153.38,4511.19,2151.45z"/>
		<path class="st1" d="M2031.98,1084.05c-1.6,1.74-2.45,2.65-3.3,3.57c-1.18-1.03-2.7-1.89-3.38-3.16
			c-0.27-0.51,1.45-2.81,2.04-2.73C2028.78,1081.91,2030.08,1083.01,2031.98,1084.05z"/>
		<path class="st1" d="M2702.17,1860.57c-2.05-2.54-3.94-3.88-3.79-4.96c0.17-1.22,2.04-2.53,3.48-3.13
			c0.54-0.22,2.78,1.45,2.77,2.26C2704.61,1856.18,2703.5,1857.62,2702.17,1860.57z"/>
		<path class="st1" d="M3274.39,2518.88c-1.16,1.34-2.34,3.19-2.71,3.05c-1.44-0.54-2.62-1.71-3.9-2.64
			c0.92-0.83,1.79-2.23,2.79-2.32C3271.62,2516.87,3272.8,2518.02,3274.39,2518.88z"/>
		<path class="st1" d="M1251.95,2636.2c1.74,2.61,3.56,4.16,3.28,5.2c-0.34,1.25-2.34,2.37-3.87,2.89c-0.5,0.17-2.6-1.79-2.5-2.63
			C1249.02,2640.22,1250.32,2638.9,1251.95,2636.2z"/>
		<path class="st1" d="M709.71,1436.53c-1.54,0.8-2.61,1.36-3.68,1.92c-0.73-1.28-1.46-2.57-2.19-3.85
			c1.15-0.41,2.45-1.33,3.41-1.08C708.16,1433.76,708.71,1435.23,709.71,1436.53z"/>
		<path class="st1" d="M1535.77,2256.76c-1.89,0.84-3.28,2.01-4.21,1.74c-1.34-0.39-2.33-1.83-3.48-2.83
			c0.99-0.76,1.96-2.09,2.97-2.12C1532.04,2253.52,1533.06,2254.83,1535.77,2256.76z"/>
		<path class="st1" d="M3194.96,1500.29c-2.08,0.91-3.54,2.13-4.51,1.84c-1.39-0.41-2.41-1.93-3.59-2.97
			c1.04-0.75,2.04-2.04,3.11-2.09C3190.96,1497.03,3192.02,1498.31,3194.96,1500.29z"/>
		<path class="st1" d="M62.01,2215.86c-1.47,0.93-2.54,1.61-3.61,2.3c-0.88-1.3-1.75-2.6-2.63-3.9c1.18-0.57,2.49-1.73,3.51-1.53
			C60.26,2212.91,60.92,2214.52,62.01,2215.86z"/>
		<path class="st1" d="M656.36,1585.71c-1.41,0.84-3.12,2.13-3.33,1.94c-1.07-0.98-1.75-2.35-2.57-3.58
			c1.12-0.5,2.37-1.56,3.32-1.35C654.71,1582.92,655.32,1584.42,656.36,1585.71z"/>
		<path class="st1" d="M3147.05,924.16c-1.36,1.96-2.17,3.87-2.72,3.8c-1.53-0.18-2.94-1.18-4.41-1.86c0.58-1.1,1.04-3.01,1.78-3.12
			C3143.14,922.77,3144.74,923.58,3147.05,924.16z"/>
		<path class="st1" d="M419.67,1934.44c1.19,1.23,2.64,2.06,2.72,3.01c0.09,0.98-1.15,2.07-1.8,3.11c-1.23-1-2.62-1.89-3.54-3.1
			C416.87,1937.22,418.53,1935.72,419.67,1934.44z"/>
		<path class="st1" d="M1995.2,1885.09c-1.66,0.87-2.68,1.4-3.7,1.93c-0.55-0.98-1.3-1.91-1.53-2.95c-0.08-0.34,1.41-1.49,1.83-1.34
			C1992.85,1883.1,1993.69,1883.99,1995.2,1885.09z"/>
		<path class="st1" d="M625.25,1034.4c0.58,1.13,1.34,2.13,1.53,3.23c0.06,0.37-1.31,0.96-2.03,1.45c-0.69-0.95-1.51-1.84-1.95-2.89
			C622.72,1035.99,624.11,1035.22,625.25,1034.4z"/>
		<path class="st1" d="M3627.79,471.43c-2.38,1.02-3.66,2.03-4.86,1.94c-1.08-0.08-2.07-1.36-3.1-2.11c0.8-0.95,1.47-2.49,2.42-2.68
			C3623.2,468.4,3624.43,469.6,3627.79,471.43z"/>
		<path class="st1" d="M3769.26,1920.06c-0.52-0.6-1.43-1.2-1.43-1.79c0.01-0.58,0.95-1.15,1.49-1.73c0.66,0.79,1.33,1.59,1.99,2.38
			C3770.63,1919.3,3769.95,1919.68,3769.26,1920.06z"/>
		<path class="st1" d="M2522.2,2077.12c-1.8,0.83-3.15,1.95-3.88,1.66c-0.85-0.34-1.37-1.88-1.59-2.97
			c-0.07-0.33,1.55-1.47,2.01-1.29C2519.8,2074.91,2520.64,2075.88,2522.2,2077.12z"/>
		<path class="st1" d="M2818.91,1090.48c1.31,0.61,2.84,1.16,2.8,1.32c-0.31,1.09-0.84,2.18-1.56,3.08
			c-0.12,0.15-2.18-0.63-2.18-0.97C2817.98,1092.79,2818.54,1091.69,2818.91,1090.48z"/>
		<path class="st1" d="M4747.96,1629.14c1.43,1.18,3.01,1.92,2.98,2.61c-0.04,0.88-1.26,1.84-2.2,2.47
			c-0.23,0.16-1.87-0.81-1.89-1.31C4746.79,1631.89,4747.4,1630.85,4747.96,1629.14z"/>
		<path class="st1" d="M3666.31,2673.32c-0.35,0.56-0.79,1.25-1.23,1.95c-0.86-0.73-1.71-1.45-2.57-2.18
			c0.66-0.55,1.35-1.56,1.98-1.53C3665.12,2671.59,3665.69,2672.67,3666.31,2673.32z"/>
		<path class="st1" d="M677.12,831.24c-1.02-1.56-2.31-2.66-2.17-3.56c0.15-0.92,1.7-1.63,2.64-2.43c0.81,0.94,2.24,1.87,2.26,2.82
			C679.87,828.96,678.38,829.87,677.12,831.24z"/>
		<path class="st1" d="M1471.52,1495.62c-0.39-1.08-0.94-2.1-1-3.14c-0.02-0.3,1.94-1.09,2.06-0.94c0.7,0.84,1.13,1.88,1.65,2.86
			C1473.48,1494.73,1472.73,1495.07,1471.52,1495.62z"/>
		<path class="st1" d="M1693.53,60.59c-1.28-1.33-2.77-2.2-2.8-3.1c-0.02-0.86,1.43-2.39,2.33-2.46c0.88-0.06,2.51,1.26,2.65,2.14
			C1695.85,58.05,1694.53,59.13,1693.53,60.59z"/>
		<path class="st1" d="M4667.72,1165.58c1.23,1.45,2.71,2.43,2.65,3.33c-0.06,0.98-1.55,1.87-2.42,2.8
			c-0.91-0.86-2.45-1.65-2.56-2.59C4665.29,1168.2,4666.64,1167.13,4667.72,1165.58z"/>
		<path class="st1" d="M4751.11,2338.48c-1.27,0.28-2.45,0.75-3.6,0.69c-0.38-0.02-1.08-2.01-0.95-2.1
			c1.01-0.63,2.19-1.01,3.32-1.47C4750.21,2336.39,4750.55,2337.17,4751.11,2338.48z"/>
		<path class="st1" d="M2967.37,1444.64c-0.96,1.37-1.64,2.34-2.32,3.31c-1.28-0.83-2.57-1.65-3.85-2.48
			c0.84-0.9,1.56-2.31,2.57-2.54C2964.65,1442.74,2965.86,1443.88,2967.37,1444.64z"/>
		<path class="st1" d="M4448.57,2444.14c0.64,0.56,1.27,1.11,1.9,1.67c-0.88,0.67-1.76,1.35-2.65,2.02
			c-0.41-0.7-1.25-1.49-1.12-2.09C4446.85,2445.11,4447.91,2444.66,4448.57,2444.14z"/>
		<path class="st1" d="M1494.54,314.18c1.43-0.91,2.45-1.56,3.46-2.21c0.85,1.21,1.69,2.41,2.54,3.62
			c-1.11,0.51-2.31,1.56-3.29,1.39C1496.32,316.82,1495.64,315.39,1494.54,314.18z"/>
		<path class="st1" d="M1047.58,707.41c-0.88-1.64-2-2.79-1.78-3.58c0.21-0.73,1.83-1.28,2.92-1.48c0.37-0.07,1.56,1.37,1.41,1.77
			C1049.73,705.13,1048.78,705.95,1047.58,707.41z"/>
		<path class="st1" d="M3617.64,1318.81c0.63,0.52,1.26,1.03,1.89,1.55c-0.84,0.68-1.68,1.36-2.53,2.04
			c-0.43-0.67-1.29-1.42-1.17-1.98C3615.97,1319.79,3617,1319.34,3617.64,1318.81z"/>
		<path class="st1" d="M2454.38,1298.47c-0.35-1.22-0.9-2.35-0.89-3.48c0-0.34,2.13-1.1,2.25-0.94c0.72,0.92,1.12,2.06,1.64,3.13
			C2456.55,1297.53,2455.73,1297.89,2454.38,1298.47z"/>
		<path class="st1" d="M4460.12,1250.46c-1.7,0.75-3.05,1.87-3.91,1.59c-0.95-0.31-1.46-1.88-2.16-2.9
			c1.09-0.63,2.25-1.84,3.25-1.72C4458.2,1247.52,4458.91,1249.07,4460.12,1250.46z"/>
		<path class="st1" d="M4633.33,299.71c-0.8-0.24-1.6-0.47-2.39-0.71c0.39-1.06,0.79-2.11,1.18-3.17c0.94,0.67,1.88,1.33,2.82,2
			C4634.4,298.46,4633.87,299.08,4633.33,299.71z"/>
		<path class="st1" d="M1911.27,118.07c-1.42,0.52-2.55,1.17-3.74,1.27c-0.61,0.06-1.94-1.13-1.87-1.27
			c0.49-0.98,1.26-1.84,1.94-2.73C1908.27,115.84,1908.93,116.33,1911.27,118.07z"/>
		<path class="st1" d="M4217.99,190.06c0.68,0.52,2,1.3,1.91,1.53c-0.43,1.01-1.26,1.87-1.95,2.78c-0.68-0.93-1.5-1.8-1.94-2.83
			C4215.93,191.34,4217.29,190.57,4217.99,190.06z"/>
		<path class="st1" d="M3568.99,975.11c1.04,2.45,2.02,3.7,1.92,4.86c-0.09,1.05-1.37,2-2.12,3c-1.01-0.74-2.65-1.35-2.86-2.26
			C3565.73,979.82,3566.97,978.63,3568.99,975.11z"/>
		<path class="st1" d="M4908.63,2925.76c-1.07-1.55-2.39-2.61-2.27-3.5c0.12-0.91,1.65-1.65,2.56-2.46c0.8,0.92,2.19,1.8,2.24,2.75
			C4911.2,2923.43,4909.8,2924.36,4908.63,2925.76z"/>
		<path class="st1" d="M574.45,913.38c-0.73,0.4-1.55,1.2-2.15,1.07c-0.67-0.14-1.14-1.14-1.69-1.76c1-0.53,2-1.05,3-1.58
			C573.88,911.87,574.17,912.62,574.45,913.38z"/>
		<path class="st1" d="M4338.3,1827.62c-1.52,0.55-2.72,1.24-3.97,1.34c-0.64,0.05-2.04-1.25-1.95-1.42
			c0.5-1.01,1.34-1.86,2.07-2.77C4335.13,1825.28,4335.82,1825.79,4338.3,1827.62z"/>
		<path class="st1" d="M160.53,2195.52c0.89,1.5,2.15,2.68,1.92,3.49c-0.25,0.88-1.95,2.04-2.86,1.92c-0.87-0.11-2.19-1.76-2.1-2.62
			C157.58,2197.44,159.15,2196.71,160.53,2195.52z"/>
		<path class="st1" d="M1866.16,1782.74c1.05,1.44,2.34,2.43,2.27,3.31c-0.08,0.91-1.48,1.72-2.31,2.58
			c-0.83-0.86-2.23-1.68-2.31-2.6C1863.74,1785.16,1865.06,1784.18,1866.16,1782.74z"/>
		<path class="st1" d="M4311.94,2239.86c-0.99,0.73-1.82,1.59-2.84,1.96c-0.35,0.13-1.79-1.31-1.71-1.44
			c0.6-0.93,1.46-1.71,2.24-2.54C4310.25,2238.39,4310.88,2238.94,4311.94,2239.86z"/>
		<path class="st1" d="M2445.39,337.53c-1.67,0.99-2.84,2.25-3.81,2.11c-0.96-0.13-1.71-1.66-2.56-2.57
			c0.99-0.77,1.98-2.15,2.98-2.15C2442.97,334.91,2443.93,336.32,2445.39,337.53z"/>
		<path class="st1" d="M3256.45,418.45c0.55,0.63,1.51,1.24,1.54,1.89c0.02,0.57-0.99,1.18-1.55,1.77
			c-0.73-0.83-1.45-1.66-2.18-2.49C3254.98,419.23,3255.71,418.84,3256.45,418.45z"/>
		<path class="st1" d="M2211.79,1745.79c-0.44-1.1-1.07-2.11-1.15-3.15c-0.03-0.34,1.36-0.78,2.1-1.17
			c0.55,0.95,1.22,1.87,1.54,2.89C2214.35,1744.54,2212.97,1745.13,2211.79,1745.79z"/>
		<path class="st1" d="M3927.42,2747.51c-1.73,1.06-2.78,1.69-3.82,2.33c-0.62-1.06-1.48-2.07-1.74-3.2
			c-0.09-0.4,1.44-1.7,1.88-1.57C3924.85,2745.43,3925.77,2746.36,3927.42,2747.51z"/>
		<path class="st1" d="M1450.42,1127.3c0.81-0.82,1.5-1.77,2.44-2.3c0.27-0.15,1.94,1.13,1.85,1.34c-0.43,1.02-1.23,1.91-1.9,2.84
			C1452.17,1128.67,1451.51,1128.15,1450.42,1127.3z"/>
		<path class="st1" d="M142.78,2708.86c-0.83,0.16-1.89,0.69-2.37,0.38c-0.55-0.35-0.6-1.43-0.86-2.2c1.08-0.17,2.15-0.34,3.23-0.51
			C142.78,2707.31,142.78,2708.08,142.78,2708.86z"/>
		<path class="st1" d="M1457.61,2451.26c-1.22-0.19-2.45-0.15-3.38-0.64c-0.38-0.2-0.12-1.52-0.15-2.33c1.18,0,2.37-0.08,3.51,0.12
			C1457.74,2448.43,1457.61,2449.9,1457.61,2451.26z"/>
		<path class="st1" d="M4596.42,715.82c-0.62,0.5-1.24,1.4-1.85,1.39c-0.61-0.01-1.21-0.93-1.81-1.45c0.82-0.63,1.64-1.26,2.46-1.89
			C4595.62,714.52,4596.02,715.17,4596.42,715.82z"/>
		<path class="st1" d="M4270.68,100.4c-0.4-1.13-0.99-2.16-1.01-3.2c-0.01-0.37,1.91-1.2,2-1.1c0.73,0.86,1.23,1.9,1.8,2.89
			C4272.72,99.37,4271.96,99.75,4270.68,100.4z"/>
		<path class="st1" d="M524.93,2523.63c-0.95-0.98-1.52-1.57-2.08-2.15c0.88-0.7,1.71-1.51,2.7-2.01c0.18-0.09,1.63,1.31,1.49,1.59
			C526.6,2522,525.7,2522.75,524.93,2523.63z"/>
		<path class="st1" d="M4600.43,1503.52c1.03,2.21,2.03,3.37,1.95,4.46c-0.07,1-1.29,1.93-2,2.89c-0.97-0.72-2.54-1.31-2.74-2.19
			C4597.45,1507.82,4598.64,1506.67,4600.43,1503.52z"/>
		<path class="st1" d="M2193.08,2536.14c-1.18,0.44-2.26,1.05-3.37,1.13c-0.37,0.03-0.85-1.3-1.28-2c1.01-0.54,1.99-1.2,3.08-1.51
			C2191.72,2533.7,2192.36,2535.02,2193.08,2536.14z"/>
		<path class="st1" d="M1150.16,2597.34c-0.7-0.36-1.83-0.61-2-1.13c-0.19-0.61,0.46-1.46,0.74-2.2c0.99,0.53,1.97,1.06,2.96,1.6
			C1151.3,2596.18,1150.73,2596.76,1150.16,2597.34z"/>
		<path class="st1" d="M3100.71,1474.78c1.3,0.53,2.08,0.85,2.85,1.17c-0.52,1.02-0.96,2.1-1.65,3.01c-0.1,0.13-2.09-0.62-2.1-0.97
			C3099.81,1476.94,3100.36,1475.89,3100.71,1474.78z"/>
		<path class="st1" d="M3681.32,1454.06c-0.95-0.97-1.51-1.55-2.08-2.13c0.87-0.69,1.69-1.49,2.67-1.99
			c0.18-0.09,1.61,1.28,1.48,1.57C3682.97,1452.44,3682.09,1453.18,3681.32,1454.06z"/>
		<path class="st1" d="M4350.5,1458.29c-2.12-3.82-3.33-5.01-3.12-5.91c0.2-0.88,1.84-1.46,2.85-2.17c0.74,0.99,1.99,1.94,2.09,2.98
			C4352.43,1454.38,4351.51,1455.66,4350.5,1458.29z"/>
		<path class="st1" d="M3163.03,2577.51c-0.39-0.72-1.2-1.52-1.05-2.12c0.13-0.54,1.3-0.85,2.01-1.27c0.41,0.72,1.23,1.53,1.09,2.14
			C3164.97,2576.8,3163.76,2577.11,3163.03,2577.51z"/>
		<path class="st1" d="M3415.54,674.57c-0.69,0.4-1.38,0.79-2.07,1.19c-0.38-0.71-1.14-1.49-1.01-2.1c0.1-0.5,1.28-0.79,1.98-1.17
			C3414.81,673.18,3415.17,673.88,3415.54,674.57z"/>
		<path class="st1" d="M375.22,2545.55c-0.44,0.69-0.79,1.85-1.33,1.94c-0.68,0.11-1.51-0.67-2.28-1.06
			c0.45-0.68,0.8-1.79,1.38-1.92C373.62,2544.38,374.47,2545.16,375.22,2545.55z"/>
		<path class="st1" d="M3877.39,574c-0.6,0.52-1.2,1.03-1.79,1.55c-0.68-0.77-1.35-1.54-2.03-2.32c0.7-0.34,1.48-1.03,2.09-0.92
			C3876.29,572.43,3876.75,573.34,3877.39,574z"/>
		<path class="st1" d="M413.15,1137.82c-0.66,0.5-1.32,0.99-1.98,1.48c-0.59-0.92-1.18-1.83-1.77-2.75
			c0.82-0.24,1.75-0.83,2.44-0.63C412.42,1136.1,412.72,1137.16,413.15,1137.82z"/>
		<path class="st1" d="M1799.35,2605.95c-0.81-0.28-1.61-0.55-2.42-0.83c0.62-0.92,1.23-1.85,1.85-2.77c0.63,0.53,1.66,1,1.78,1.62
			C1800.67,2604.55,1799.79,2605.29,1799.35,2605.95z"/>
		<path class="st1" d="M2243.91,1433.86c-0.44,0.69-0.88,1.38-1.32,2.07c-0.71-0.43-1.92-0.79-2.01-1.31
			c-0.1-0.61,0.77-1.38,1.22-2.08C2242.51,1432.98,2243.21,1433.42,2243.91,1433.86z"/>
		<path class="st1" d="M81.87,1134.15c-0.65,0.53-1.31,1.5-1.94,1.49c-0.6-0.02-1.64-1.08-1.62-1.66c0.02-0.63,1.04-1.23,1.62-1.84
			C80.52,1132.75,81.12,1133.37,81.87,1134.15z"/>
		<path class="st1" d="M3028.68,1209.06c-0.55,0.6-1.11,1.19-1.66,1.79c-0.68-0.82-1.37-1.64-2.05-2.46c0.7-0.4,1.5-1.21,2.07-1.08
			C3027.69,1207.46,3028.14,1208.44,3028.68,1209.06z"/>
		<path class="st1" d="M4037.84,2625.2c0.53,0.59,1.06,1.18,1.58,1.77c-0.94,0.54-1.88,1.09-2.82,1.63
			c-0.28-0.74-0.92-1.59-0.72-2.18C4036.06,2625.87,4037.15,2625.6,4037.84,2625.2z"/>
		<path class="st1" d="M2068.54,1417.76c-0.47,0.69-0.82,1.79-1.45,1.95c-0.71,0.19-1.67-0.45-2.51-0.73
			c0.64-0.95,1.28-1.9,1.92-2.85C2067.18,1416.68,2067.86,1417.22,2068.54,1417.76z"/>
		<path class="st1" d="M1541.09,1549.29c-0.67,0.55-1.34,1.1-2.01,1.65c-0.63-0.98-1.26-1.96-1.89-2.94c0.85-0.27,1.81-0.9,2.52-0.7
			C1540.33,1547.47,1540.65,1548.59,1541.09,1549.29z"/>
		<path class="st1" d="M4072.03,1563.95c-1.1,0.42-2.13,1.01-3.2,1.1c-0.33,0.03-1.27-1.78-1.11-1.93c0.81-0.73,1.89-1.18,2.87-1.73
			C4070.98,1562.09,4071.38,1562.79,4072.03,1563.95z"/>
		<path class="st1" d="M4822.85,2990.89c-0.61,0.49-1.23,0.97-1.84,1.46c-0.57-0.88-1.13-1.75-1.7-2.63
			c0.77-0.24,1.65-0.81,2.29-0.63C4822.15,2989.25,4822.44,2990.26,4822.85,2990.89z"/>
		<path class="st1" d="M3136.45,1567c0.81,0.28,1.63,0.57,2.44,0.85c-0.6,1.01-1.19,2.02-1.79,3.03c-0.63-0.58-1.65-1.09-1.78-1.77
			C3135.19,1568.5,3136.03,1567.72,3136.45,1567z"/>
		<path class="st1" d="M1775.77,1582.63c-0.8,0.82-1.5,1.72-2.41,2.32c-0.19,0.12-1.81-1.11-1.72-1.36
			c0.37-0.99,1.16-1.84,1.79-2.74C1774.08,1581.34,1774.73,1581.83,1775.77,1582.63z"/>
		<path class="st1" d="M2810,1132.37c-0.74,0.36-1.57,1.09-2.2,0.95c-0.52-0.11-0.81-1.23-1.2-1.9c0.73-0.35,1.56-1.09,2.15-0.94
			C2809.31,1130.63,2809.6,1131.71,2810,1132.37z"/>
		<path class="st1" d="M2877.03,1599.46c0.62,0.51,1.24,1.03,1.86,1.54c-0.86,0.63-1.72,1.25-2.57,1.88
			c-0.41-0.65-1.26-1.41-1.12-1.92C2875.35,1600.35,2876.37,1599.95,2877.03,1599.46z"/>
		<path class="st1" d="M3001.54,2710.17c-0.27,0.75-0.53,1.49-0.8,2.23c-0.92-0.57-1.84-1.15-2.76-1.72
			c0.53-0.59,0.98-1.53,1.61-1.65C3000.14,2708.93,3000.88,2709.76,3001.54,2710.17z"/>
		<path class="st1" d="M1455.79,2372.35c-0.55-0.62-1.56-1.27-1.52-1.85c0.04-0.64,1.05-1.22,1.64-1.83
			c0.73,0.85,1.46,1.7,2.19,2.56C1457.33,2371.6,1456.56,2371.98,1455.79,2372.35z"/>
		<path class="st1" d="M2450.93,1061.9c-0.6,0.56-1.21,1.12-1.81,1.68c-0.56-0.6-1.6-1.23-1.56-1.79c0.04-0.62,1.07-1.19,1.67-1.77
			C2449.78,1060.63,2450.34,1061.25,2450.93,1061.9z"/>
		<path class="st1" d="M603.14,1054.71c-0.55,0.58-1.1,1.16-1.65,1.74c-0.55-0.58-1.52-1.15-1.53-1.73
			c-0.01-0.56,0.98-1.14,1.53-1.7C602.04,1053.59,602.59,1054.15,603.14,1054.71z"/>
		<path class="st1" d="M3493.72,765.71c-0.75,0.37-1.59,1.12-2.22,0.99c-0.57-0.13-0.9-1.22-1.34-1.89c0.76-0.37,1.6-1.12,2.27-1
			C3492.96,763.89,3493.3,765.03,3493.72,765.71z"/>
		<path class="st1" d="M3557.89,2338.32c-0.75,0-1.91,0.3-2.24-0.08c-0.4-0.45-0.39-1.67,0-2.17c0.28-0.36,1.46-0.09,2.24-0.1
			C3557.89,2336.74,3557.89,2337.52,3557.89,2338.32z"/>
		<path class="st1" d="M340.91,2267.17c-0.41,0.68-0.82,1.35-1.24,2.03c-0.68-0.41-1.84-0.76-1.92-1.25
			c-0.09-0.62,0.71-1.36,1.12-2.05C339.56,2266.32,340.23,2266.74,340.91,2267.17z"/>
		<path class="st1" d="M1085.73,2258.88c0.53,0.66,1.05,1.31,1.58,1.96c-0.99,0.57-1.99,1.14-2.98,1.71
			c-0.25-0.81-0.87-1.73-0.65-2.4C1083.87,2259.58,1085.01,2259.29,1085.73,2258.88z"/>
		<path class="st1" d="M2415.35,2756.88c-0.42,0.63-0.72,1.62-1.28,1.77c-0.65,0.18-1.52-0.39-2.29-0.64
			c0.57-0.86,1.14-1.72,1.71-2.58C2414.11,2755.92,2414.73,2756.39,2415.35,2756.88z"/>
		<path class="st1" d="M3288.19,310.63c-0.71,0.58-1.49,1.41-2.45,1.88c-0.22,0.11-1.68-1.27-1.56-1.52
			c0.46-0.93,1.33-1.67,2.04-2.48C3286.76,309.1,3287.3,309.68,3288.19,310.63z"/>
		<path class="st1" d="M2759.87,810.47c-0.71,0.42-1.43,0.84-2.14,1.26c-0.42-0.7-1.27-1.49-1.14-2.09
			c0.11-0.52,1.31-0.84,2.02-1.25C2759.03,809.09,2759.45,809.78,2759.87,810.47z"/>
		<path class="st1" d="M3018.35,2871.93c0.68,0.52,1.75,0.95,1.92,1.59c0.14,0.53-0.79,1.31-1.24,1.98
			c-0.89-0.68-1.79-1.35-2.68-2.03C3017.01,2872.96,3017.68,2872.44,3018.35,2871.93z"/>
		<path class="st1" d="M1402.7,1800.8c-0.3,0.71-0.43,1.78-0.97,2.03c-0.6,0.28-1.58-0.19-2.4-0.33c0.4-0.95,0.8-1.9,1.21-2.85
			C1401.26,1800.04,1401.98,1800.42,1402.7,1800.8z"/>
		<path class="st1" d="M2447.6,2237.05c-0.85-0.75-1.79-1.4-2.42-2.27c-0.13-0.18,1.18-1.74,1.45-1.65
			c1.06,0.35,1.97,1.12,2.93,1.73C2449.03,2235.47,2448.49,2236.07,2447.6,2237.05z"/>
		<path class="st1" d="M104.74,2231.29c-0.42,0.68-0.84,1.35-1.26,2.02c-0.84-0.7-1.68-1.4-2.52-2.09c0.64-0.53,1.29-1.49,1.92-1.48
			C103.51,2229.75,104.12,2230.73,104.74,2231.29z"/>
		<path class="st1" d="M2827.6,848.94c-0.64,0.48-1.28,0.95-1.92,1.43c-0.53-0.91-1.06-1.82-1.59-2.72
			c0.77-0.22,1.67-0.76,2.29-0.55C2826.94,847.29,2827.2,848.29,2827.6,848.94z"/>
		<path class="st1" d="M751.24,1316.53c0.57,0.59,1.59,1.18,1.58,1.75c-0.02,0.6-1.04,1.16-1.62,1.74
			c-0.71-0.81-1.43-1.61-2.15-2.42C749.78,1317.24,750.51,1316.88,751.24,1316.53z"/>
		<path class="st1" d="M4535.61,1298.13c-0.44,0.64-0.8,1.68-1.36,1.79c-0.6,0.12-1.39-0.63-2.1-1c0.43-0.64,0.78-1.72,1.32-1.81
			C4534.09,1296.99,4534.88,1297.74,4535.61,1298.13z"/>
		<path class="st1" d="M3337.42,2906c0.83,0.28,2.07,0.36,2.36,0.9c0.32,0.6-0.25,1.62-0.43,2.46c-1.07-0.4-2.13-0.79-3.2-1.19
			C3336.57,2907.45,3336.99,2906.73,3337.42,2906z"/>
		<path class="st1" d="M139.6,1839.39c-0.57,1.2-1.1,2.57-1.23,2.54c-1.12-0.28-2.16-0.82-3.23-1.29c0.36-0.71,0.7-2.01,1.08-2.02
			C137.3,1838.59,138.4,1839.08,139.6,1839.39z"/>
		<path class="st1" d="M2111.19,1845.37c-0.32,0.75-0.45,1.88-1.03,2.14c-0.62,0.29-1.65-0.22-2.51-0.37
			c0.43-0.99,0.86-1.98,1.28-2.97C2109.69,1844.56,2110.44,1844.96,2111.19,1845.37z"/>
		<path class="st1" d="M61.61,226.54c0.71,0.43,1.87,0.77,1.99,1.32c0.13,0.61-0.69,1.4-1.09,2.11c-0.72-0.42-1.93-0.76-2.03-1.29
			C60.35,228.06,61.18,227.26,61.61,226.54z"/>
		<path class="st1" d="M4512.71,2913.7c0.4,0.69,0.79,1.37,1.19,2.06c-0.73,0.36-1.57,1.12-2.15,0.97
			c-0.55-0.14-0.84-1.23-1.24-1.91C4511.24,2914.44,4511.98,2914.07,4512.71,2913.7z"/>
		<path class="st1" d="M2561.55,1276.37c-0.57,0.59-1.14,1.19-1.7,1.78c-0.73-0.8-1.46-1.61-2.2-2.41c0.74-0.39,1.54-1.16,2.19-1.05
			C2560.49,1274.8,2560.98,1275.77,2561.55,1276.37z"/>
		<path class="st1" d="M3619.1,318.15c-0.62,0.47-1.24,0.95-1.86,1.42c-0.56-0.87-1.11-1.74-1.67-2.61c0.77-0.24,1.65-0.8,2.29-0.62
			C3618.41,316.51,3618.69,317.52,3619.1,318.15z"/>
		<path class="st1" d="M2620.77,1870.71c-1.08,0.51-2.06,1.18-3.12,1.35c-0.35,0.05-1.44-1.65-1.32-1.77
			c0.77-0.78,1.78-1.34,2.7-1.98C2619.51,1868.97,2619.99,1869.63,2620.77,1870.71z"/>
		<path class="st1" d="M3800.25,2151.65c-0.43,0.7-0.85,1.4-1.28,2.09c-0.69-0.44-1.82-0.79-1.94-1.34
			c-0.13-0.57,0.72-1.34,1.15-2.02C3798.87,2150.8,3799.56,2151.23,3800.25,2151.65z"/>
		<path class="st1" d="M763.61,1879.21c0.78,0.88,1.67,1.64,2.13,2.59c0.13,0.26-1.35,1.66-1.55,1.56c-0.99-0.5-1.8-1.33-2.68-2.04
			C762.08,1880.75,762.65,1880.17,763.61,1879.21z"/>
		<path class="st1" d="M2525.01,1264.24c-0.31,0.78-0.62,1.55-0.94,2.32c-1.05-0.57-2.11-1.13-3.16-1.7
			c0.6-0.62,1.13-1.65,1.81-1.76C2523.41,1263,2524.24,1263.82,2525.01,1264.24z"/>
		<path class="st1" d="M2528.89,1910.24c-0.75,0.37-1.58,1.11-2.22,0.97c-0.57-0.12-0.91-1.2-1.36-1.85c0.76-0.37,1.59-1.11,2.26-1
			C2528.1,1908.45,2528.46,1909.57,2528.89,1910.24z"/>
		<path class="st1" d="M3896.15,1026.92c-0.62-1.95-1.12-2.94-1.13-3.95c0-0.29,1.47-0.91,2.15-0.79c0.65,0.11,1.72,1.24,1.6,1.51
			C3898.35,1024.61,3897.49,1025.35,3896.15,1026.92z"/>
		<path class="st1" d="M3668.75,2132.65c-0.66,0.52-1.32,1.03-1.98,1.54c-0.59-0.96-1.18-1.91-1.78-2.87
			c0.84-0.25,1.79-0.84,2.48-0.64C3668.05,2130.87,3668.33,2131.96,3668.75,2132.65z"/>
		<path class="st1" d="M95.91,2087.47c-0.7,0.4-1.4,0.8-2.1,1.2c-0.39-0.7-1.18-1.49-1.04-2.07c0.13-0.54,1.26-0.86,1.96-1.28
			C95.12,2086.03,95.52,2086.75,95.91,2087.47z"/>
		<path class="st1" d="M2122.03,1000.79c-0.65,0.56-1.3,1.55-1.95,1.54c-0.62-0.01-1.24-1.03-1.86-1.61
			c0.87-0.71,1.74-1.43,2.62-2.14C2121.24,999.31,2121.63,1000.05,2122.03,1000.79z"/>
		<path class="st1" d="M310.01,991.79c0.53,0.54,1.52,1.11,1.51,1.66c-0.02,0.57-1.01,1.11-1.57,1.67
			c-0.56-0.57-1.53-1.14-1.54-1.72C308.39,992.87,309.43,992.33,310.01,991.79z"/>
		<path class="st1" d="M1935.83,2961.11c0.55,0.57,1.53,1.15,1.52,1.71c-0.01,0.57-1.01,1.12-1.57,1.67
			c-0.71-0.78-1.42-1.55-2.13-2.33C1934.37,2961.81,1935.1,2961.46,1935.83,2961.11z"/>
		<path class="st1" d="M4908.34,2001.37c-0.61,0.52-1.23,1.45-1.84,1.45c-0.57-0.01-1.12-1.01-1.68-1.57
			c0.61-0.53,1.23-1.47,1.82-1.46C4907.23,1999.8,4907.78,2000.8,4908.34,2001.37z"/>
		<path class="st1" d="M1791.71,2005.35c-0.17,0.42-0.33,0.83-0.49,1.25c-0.68-0.35-1.4-0.65-2-1.09c-0.11-0.08,0.28-0.78,0.44-1.19
			C1790.34,2004.66,1791.03,2005,1791.71,2005.35z"/>
		<path class="st1" d="M4399.07,1250.88c-0.04,0.41-0.08,0.82-0.12,1.23c-0.79-0.08-1.59-0.13-2.36-0.29
			c-0.05-0.01,0.06-0.77,0.1-1.18C4397.48,1250.73,4398.28,1250.8,4399.07,1250.88z"/>
		<path class="st1" d="M1552.74,985.62c-0.37,0.66-0.73,1.32-1.1,1.98c-0.35-0.26-1.05-0.62-1-0.75c0.25-0.7,0.67-1.35,1.04-2.01
			C1552.03,985.1,1552.38,985.36,1552.74,985.62z"/>
		<path class="st1" d="M759.9,1987.15c-0.38,0.71-0.7,1.46-1.19,2.08c-0.12,0.14-1.2-0.1-1.23-0.26c-0.13-0.75-0.04-1.54-0.03-2.31
			C758.27,1986.81,759.08,1986.98,759.9,1987.15z"/>
		<path class="st1" d="M3424.45,1024.49c-0.8,0.22-1.59,0.44-2.38,0.66c-0.05-0.8-0.17-1.6-0.08-2.39c0.02-0.16,1.1-0.46,1.21-0.33
			C3423.71,1023.04,3424.05,1023.78,3424.45,1024.49z"/>
		<path class="st1" d="M4936.74,2086.82c-0.39,0.65-0.78,1.29-1.17,1.93c-0.67-0.39-1.77-0.68-1.88-1.18
			c-0.12-0.55,0.68-1.28,1.07-1.92C4935.42,2086.04,4936.08,2086.43,4936.74,2086.82z"/>
		<path class="st1" d="M638.89,212.93c0.37,0.04,0.75,0.08,1.12,0.12c-0.08,0.65-0.15,1.31-0.3,1.95c-0.01,0.04-0.7-0.06-1.07-0.1
			C638.72,214.25,638.81,213.59,638.89,212.93z"/>
		<path class="st1" d="M1259.47,1035.76c0.64,0.44,1.27,0.89,1.91,1.33c-0.59,0.49-1.13,1.05-1.79,1.43c-0.16,0.09-1.04-0.51-1-0.66
			C1258.77,1037.13,1259.15,1036.45,1259.47,1035.76z"/>
		<path class="st1" d="M1019,1875.67c-0.37,0.11-0.74,0.23-1.1,0.34c-0.17-0.67-0.38-1.33-0.47-2.01c-0.01-0.06,0.69-0.22,1.06-0.33
			C1018.65,1874.34,1018.83,1875.01,1019,1875.67z"/>
		<path class="st1" d="M1382.61,1868.34c0.3,0.59,0.66,1.17,0.86,1.79c0.04,0.11-0.58,0.42-0.9,0.63c-0.3-0.59-0.66-1.17-0.86-1.8
			C1381.68,1868.85,1382.3,1868.55,1382.61,1868.34z"/>
		<path class="st1" d="M1733.74,1858.17c-0.53-0.49-1.06-0.97-1.6-1.46c0.69-0.32,1.36-0.72,2.09-0.92
			c0.19-0.05,0.87,0.69,0.81,0.78C1734.68,1857.16,1734.17,1857.68,1733.74,1858.17z"/>
		<path class="st1" d="M3359.6,1036.32c-0.35,0.27-0.71,0.75-1.05,0.74c-0.34-0.01-0.67-0.52-1-0.81c0.58-0.4,1.16-0.8,1.73-1.2
			C3359.38,1035.48,3359.49,1035.9,3359.6,1036.32z"/>
		<path class="st1" d="M1215.47,184.18c-0.63,0.56-1.23,1.1-1.83,1.63c-0.44-0.65-0.96-1.27-1.27-1.98
			c-0.07-0.16,0.7-0.92,0.86-0.86C1213.98,183.26,1214.66,183.73,1215.47,184.18z"/>
		<path class="st1" d="M2567.33,1853.09c0.38,0.14,0.77,0.29,1.15,0.43c-0.33,0.56-0.61,1.17-1.04,1.66
			c-0.08,0.1-0.73-0.25-1.11-0.39C2566.66,1854.22,2566.99,1853.65,2567.33,1853.09z"/>
		<path class="st1" d="M4062.07,1828.03c0.68,0.35,1.36,0.71,2.04,1.06c-0.55,0.49-1.04,1.07-1.67,1.43
			c-0.21,0.12-1.11-0.37-1.09-0.46C4061.51,1829.38,4061.81,1828.71,4062.07,1828.03z"/>
		<path class="st1" d="M233.79,2187.94c0.42,0.04,0.84,0.09,1.26,0.13c-0.09,0.74-0.16,1.48-0.32,2.2c-0.01,0.05-0.79-0.06-1.21-0.1
			C233.6,2189.42,233.69,2188.68,233.79,2187.94z"/>
		<path class="st1" d="M3277.03,1823.68c0.35,0.68,0.76,1.35,0.98,2.06c0.04,0.14-0.66,0.49-1.02,0.74
			c-0.35-0.68-0.76-1.35-0.98-2.07C3275.96,1824.28,3276.67,1823.93,3277.03,1823.68z"/>
		<path class="st1" d="M1406.91,1819.53c-0.14,0.35-0.29,0.69-0.43,1.04c-0.56-0.3-1.17-0.55-1.66-0.94
			c-0.09-0.07,0.25-0.66,0.39-1.01C1405.78,1818.93,1406.34,1819.23,1406.91,1819.53z"/>
		<path class="st1" d="M2124.27,2213.94c-0.5,0.53-0.97,1.07-1.53,1.53c-0.06,0.05-0.9-0.48-0.87-0.67c0.1-0.69,0.42-1.36,0.65-2.03
			C2123.1,2213.15,2123.68,2213.55,2124.27,2213.94z"/>
		<path class="st1" d="M649.44,2222.67c0.44,0.16,0.87,0.32,1.31,0.47c-0.37,0.65-0.69,1.34-1.16,1.91
			c-0.09,0.1-0.82-0.28-1.25-0.44C648.7,2223.96,649.07,2223.32,649.44,2222.67z"/>
		<path class="st1" d="M3367.06,143c-0.3,0.31-0.61,0.62-0.91,0.93c-0.42-0.55-0.83-1.09-1.25-1.64c0.44-0.1,0.94-0.37,1.31-0.25
			C3366.57,142.16,3366.78,142.67,3367.06,143z"/>
		<path class="st1" d="M4723.85,1811.21c-0.16,0.4-0.32,0.79-0.48,1.18c-0.64-0.34-1.33-0.63-1.88-1.07
			c-0.11-0.09,0.28-0.75,0.44-1.14C4722.57,1810.52,4723.21,1810.86,4723.85,1811.21z"/>
		<path class="st1" d="M4511.26,230.06c-0.53-0.47-1.06-0.94-1.59-1.41c0.68-0.32,1.33-0.72,2.05-0.92
			c0.18-0.05,0.85,0.68,0.79,0.78C4512.14,229.1,4511.64,229.6,4511.26,230.06z"/>
		<path class="st1" d="M3117.83,1780.15c-0.15,0.37-0.3,0.74-0.45,1.1c-0.6-0.3-1.24-0.55-1.77-0.94c-0.1-0.08,0.24-0.7,0.38-1.06
			C3116.61,1779.55,3117.22,1779.85,3117.83,1780.15z"/>
		<path class="st1" d="M250.05,1773.68c-0.39,0.66-0.78,1.32-1.18,1.98c-0.67-0.38-1.77-0.67-1.91-1.18
			c-0.14-0.52,0.67-1.27,1.06-1.92C248.7,1772.93,249.37,1773.3,250.05,1773.68z"/>
		<path class="st1" d="M4060.39,232.57c0.68,0.42,1.79,0.74,1.92,1.28c0.14,0.53-0.71,1.29-1.12,1.96
			c-0.69-0.41-1.81-0.73-1.94-1.26C4059.12,233.99,4059.97,233.24,4060.39,232.57z"/>
		<path class="st1" d="M4619.53,1705.68c0.3,0.32,0.6,0.63,0.9,0.94c-0.6,0.45-1.18,0.95-1.84,1.32c-0.08,0.04-0.57-0.58-0.87-0.89
			C4618.33,1706.59,4618.93,1706.13,4619.53,1705.68z"/>
		<path class="st1" d="M4064.93,2275c-0.14,0.4-0.27,0.79-0.41,1.19c-0.52-0.43-1.04-0.86-1.56-1.29c0.34-0.25,0.7-0.71,1.03-0.69
			C4064.32,2274.22,4064.62,2274.71,4064.93,2275z"/>
		<path class="st1" d="M3096.44,120.83c0.36,0.69,0.78,1.36,1.02,2.09c0.04,0.12-0.69,0.48-1.06,0.73
			c-0.36-0.69-0.78-1.36-1.02-2.09C3095.35,121.43,3096.07,121.07,3096.44,120.83z"/>
		<path class="st1" d="M2078.75,2299.41c0.6,0.6,1.19,1.2,1.78,1.8c-0.63,0.56-1.28,1.58-1.87,1.55c-0.64-0.04-1.21-1.06-1.82-1.65
			C2077.48,2300.54,2078.12,2299.97,2078.75,2299.41z"/>
		<path class="st1" d="M4761.89,2328.14c0.43,0.16,0.86,0.31,1.29,0.46c-0.37,0.63-0.68,1.31-1.15,1.86
			c-0.09,0.11-0.81-0.27-1.24-0.43C4761.16,2329.41,4761.52,2328.77,4761.89,2328.14z"/>
		<path class="st1" d="M1672.87,1705.19c-0.64-0.32-1.27-0.65-1.91-0.97c0.25-0.31,0.6-0.91,0.73-0.87
			c0.68,0.22,1.29,0.59,1.93,0.91C1673.37,1704.57,1673.12,1704.88,1672.87,1705.19z"/>
		<path class="st1" d="M3832.17,251.4c-0.65,0.62-1.21,1.16-1.77,1.71c-0.57-0.54-1.13-1.09-1.7-1.63c0.58-0.54,1.13-1.47,1.74-1.49
			C3831,249.95,3831.6,250.9,3832.17,251.4z"/>
		<path class="st1" d="M3458.75,2339.03c-0.29,0.3-0.57,0.58-0.86,0.87c-0.46-0.53-0.96-1.05-1.34-1.63
			c-0.04-0.06,0.57-0.51,0.87-0.78C3457.87,2338.02,3458.33,2338.55,3458.75,2339.03z"/>
		<path class="st1" d="M1949.92,2356.18c-0.4,0.65-0.8,1.31-1.2,1.96c-0.67-0.39-1.79-0.71-1.88-1.2c-0.11-0.57,0.68-1.3,1.08-1.96
			C1948.58,2355.37,1949.25,2355.77,1949.92,2356.18z"/>
		<path class="st1" d="M2919.62,1636.62c-0.36,0.68-0.66,1.41-1.13,2.01c-0.1,0.13-1.15-0.13-1.18-0.29c-0.11-0.75-0.02-1.52,0-2.29
			C2918.07,1636.24,2918.84,1636.43,2919.62,1636.62z"/>
		<path class="st1" d="M749.88,2382.35c-0.27,0.36-0.66,1.05-0.78,1.01c-0.74-0.26-1.43-0.68-2.13-1.05c0.27-0.35,0.66-1.04,0.78-1
			C748.49,2381.57,749.18,2381.98,749.88,2382.35z"/>
		<path class="st1" d="M642.01,2387.25c0.76-0.21,1.52-0.46,2.29-0.57c0.09-0.01,0.49,0.76,0.4,1.09c-0.1,0.36-0.79,0.93-0.88,0.88
			C643.17,2388.26,642.6,2387.73,642.01,2387.25z"/>
		<path class="st1" d="M793.6,123.39c-0.42,0.58-0.78,1.21-1.29,1.69c-0.14,0.13-1.09-0.2-1.09-0.34c-0.03-0.68,0.14-1.36,0.24-2.05
			C792.17,122.92,792.88,123.15,793.6,123.39z"/>
		<path class="st1" d="M2202.98,2394.22c-0.49,0.55-0.97,1.11-1.52,1.6c-0.05,0.04-0.91-0.48-0.88-0.69c0.08-0.7,0.38-1.37,0.6-2.06
			C2201.78,2393.45,2202.38,2393.83,2202.98,2394.22z"/>
		<path class="st1" d="M1739.05,2414.07c0.68,0.35,1.36,0.7,2.04,1.05c-0.54,0.49-1.03,1.06-1.65,1.42
			c-0.21,0.12-1.11-0.35-1.09-0.44C1738.51,2415.41,1738.8,2414.75,1739.05,2414.07z"/>
		<path class="st1" d="M1874.9,392.81c-0.26-0.7-0.52-1.4-0.78-2.1c0.74-0.11,1.47-0.29,2.21-0.29c0.13,0,0.5,0.93,0.35,1.08
			C1876.19,392.02,1875.51,392.39,1874.9,392.81z"/>
		<path class="st1" d="M4864.64,732.5c-0.43,0.09-0.87,0.19-1.3,0.28c0.03-0.64,0.07-1.29,0.11-1.93c0.42,0.14,1.01,0.16,1.23,0.45
			C4864.86,731.56,4864.66,732.09,4864.64,732.5z"/>
		<path class="st1" d="M2248.49,1556.66c0.73-0.18,1.46-0.38,2.2-0.48c0.07-0.01,0.24,0.68,0.37,1.05
			c-0.73,0.17-1.45,0.38-2.19,0.47C2248.79,1557.71,2248.62,1557.03,2248.49,1556.66z"/>
		<path class="st1" d="M3951.6,1547.59c0.39,0.14,0.78,0.28,1.17,0.42c-0.33,0.57-0.61,1.18-1.04,1.68
			c-0.08,0.1-0.73-0.24-1.12-0.38C3950.94,1548.73,3951.27,1548.16,3951.6,1547.59z"/>
		<path class="st1" d="M4183.09,2474.31c-0.75,0.05-1.56,0.1-2.36,0.16c-0.02-0.42-0.11-1.19-0.05-1.2c0.79-0.13,1.6-0.17,2.41-0.22
			C4183.09,2473.47,4183.09,2473.89,4183.09,2474.31z"/>
		<path class="st1" d="M528.33,2484.9c-0.66,0.3-1.3,0.66-1.99,0.86c-0.13,0.04-0.47-0.58-0.71-0.89c0.66-0.3,1.3-0.67,1.99-0.86
			C527.75,2483.96,528.09,2484.58,528.33,2484.9z"/>
		<path class="st1" d="M664.56,1544.71c0.73,0.35,1.46,0.7,2.19,1.05c-0.53,0.61-1,1.28-1.62,1.79c-0.12,0.1-1.13-0.4-1.12-0.59
			C664.06,1546.21,664.35,1545.46,664.56,1544.71z"/>
		<path class="st1" d="M4842.04,1540.62c0.35,0.25,1.05,0.62,1,0.75c-0.24,0.7-0.67,1.34-1.03,2c-0.35-0.67-0.76-1.32-0.99-2.02
			C4840.98,1541.22,4841.68,1540.87,4842.04,1540.62z"/>
		<path class="st1" d="M3002.85,1526.2c-0.58,0.43-1.14,0.89-1.77,1.22c-0.09,0.05-0.55-0.54-0.83-0.84
			c0.58-0.42,1.14-0.89,1.77-1.23C3002.1,1525.31,3002.56,1525.91,3002.85,1526.2z"/>
		<path class="st1" d="M2341.6,343.06c-0.7,0.33-1.38,0.72-2.12,0.93c-0.13,0.04-0.49-0.63-0.74-0.98c0.7-0.33,1.39-0.71,2.13-0.93
			C2341,342.04,2341.35,342.71,2341.6,343.06z"/>
		<path class="st1" d="M3018.82,1134.1c-0.37,0.62-0.66,1.66-1.14,1.76c-0.57,0.11-1.31-0.6-1.98-0.96
			c0.38-0.62,0.66-1.64,1.17-1.76C3017.4,1133,3018.16,1133.74,3018.82,1134.1z"/>
		<path class="st1" d="M4277.12,2540.11c0.73-0.18,1.46-0.38,2.2-0.47c0.07-0.01,0.23,0.69,0.35,1.06
			c-0.73,0.17-1.45,0.37-2.19,0.46C4277.41,2541.16,4277.25,2540.47,4277.12,2540.11z"/>
		<path class="st1" d="M3350.17,1148.96c0.18,0.69,0.39,1.37,0.49,2.06c0.01,0.07-0.7,0.23-1.08,0.34
			c-0.18-0.68-0.39-1.36-0.48-2.06C3349.08,1149.23,3349.79,1149.08,3350.17,1148.96z"/>
		<path class="st1" d="M1924.01,1168.64c0.42,0,0.98-0.15,1.22,0.04c0.27,0.22,0.26,0.75,0.37,1.15c-0.65-0.01-1.29-0.03-1.94-0.04
			C1923.78,1169.4,1923.9,1169,1924.01,1168.64z"/>
		<path class="st1" d="M1262.04,2574.45c-0.69,0.37-1.49,1.13-2.03,0.99c-0.53-0.14-0.81-1.19-1.2-1.84
			c0.68-0.36,1.48-1.11,2.02-0.97C1261.36,2572.77,1261.65,2573.8,1262.04,2574.45z"/>
		<path class="st1" d="M2873.92,1466.35c-0.39-0.66-1.19-1.43-1.04-1.94c0.16-0.52,1.25-0.78,1.94-1.16
			c0.38,0.67,1.16,1.41,1.03,1.98C2875.75,1465.72,2874.61,1465.99,2873.92,1466.35z"/>
		<path class="st1" d="M3166.33,82.32c-0.78,0.27-1.56,0.54-2.33,0.81c-0.14-0.74-0.34-1.49-0.35-2.23c0-0.13,1.04-0.5,1.22-0.35
			C3165.45,81.03,3165.86,81.71,3166.33,82.32z"/>
		<path class="st1" d="M2819.32,1171.45c-0.69,0.25-1.39,0.49-2.08,0.73c-0.12-0.67-0.3-1.34-0.31-2.01c0-0.11,0.93-0.44,1.09-0.31
			C2818.54,1170.3,2818.9,1170.9,2819.32,1171.45z"/>
		<path class="st1" d="M2258.63,1441.29c-0.67-0.34-1.34-0.69-2.01-1.03c0.26-0.33,0.63-0.97,0.76-0.93
			c0.72,0.24,1.38,0.63,2.05,0.98C2259.16,1440.63,2258.89,1440.96,2258.63,1441.29z"/>
		<path class="st1" d="M4541.02,1437.58c-0.73,0.39-1.46,0.78-2.19,1.16c-0.39-0.7-1.21-1.51-1.05-2.06
			c0.16-0.54,1.32-0.81,2.04-1.2C4540.22,1436.18,4540.62,1436.88,4541.02,1437.58z"/>
		<path class="st1" d="M493.76,2617.84c-0.41-0.52-0.85-1.02-1.17-1.58c-0.05-0.08,0.53-0.48,0.82-0.73
			c0.41,0.52,0.85,1.02,1.18,1.58C494.64,2617.19,494.06,2617.59,493.76,2617.84z"/>
		<path class="st1" d="M3285.27,1422.52c0.74,0.35,1.48,0.71,2.22,1.07c-0.51,0.63-0.98,1.3-1.58,1.84c-0.1,0.09-1.11-0.4-1.11-0.6
			C3284.82,1424.06,3285.09,1423.29,3285.27,1422.52z"/>
		<path class="st1" d="M1393.59,567.49c-0.05,0.4-0.1,0.8-0.15,1.19c-0.77-0.09-1.54-0.15-2.28-0.32c-0.06-0.01,0.06-0.75,0.1-1.16
			C1392.04,567.3,1392.81,567.39,1393.59,567.49z"/>
		<path class="st1" d="M638.24,2642.62c-0.48,0.64-0.97,1.27-1.46,1.9c-0.54-0.58-1.15-1.13-1.57-1.78c-0.1-0.15,0.56-1.03,0.72-1
			C636.73,2641.92,637.48,2642.3,638.24,2642.62z"/>
		<path class="st1" d="M4496.38,1399.54c-0.29-0.33-0.8-0.66-0.8-0.99c0.01-0.33,0.53-0.65,0.83-0.97c0.44,0.54,0.87,1.08,1.3,1.62
			C4497.27,1399.31,4496.83,1399.43,4496.38,1399.54z"/>
		<path class="st1" d="M4494.91,1387.67c-0.33,0.29-0.86,0.88-0.94,0.82c-0.63-0.41-1.17-0.94-1.74-1.43
			c0.76-0.19,1.52-0.41,2.29-0.5C4494.6,1386.55,4494.78,1387.28,4494.91,1387.67z"/>
		<path class="st1" d="M3625.96,520.68c-0.43,0.68-0.75,1.77-1.33,1.92c-0.55,0.14-1.82-0.58-1.97-1.13
			c-0.15-0.53,0.62-1.77,1.17-1.88C3624.43,519.47,3625.24,520.28,3625.96,520.68z"/>
		<path class="st1" d="M3077.1,505.99c-0.34,0.29-0.67,0.58-1.01,0.88c-0.48-0.6-1-1.17-1.38-1.82c-0.05-0.09,0.62-0.56,0.95-0.85
			C3076.15,504.8,3076.63,505.4,3077.1,505.99z"/>
		<path class="st1" d="M3600.35,501.3c-0.79,0.45-1.49,1.15-2.2,1.14c-0.53-0.01-1.06-0.92-1.58-1.43c0.71-0.4,1.42-1.09,2.13-1.1
			C3599.24,499.92,3599.79,500.8,3600.35,501.3z"/>
		<path class="st1" d="M4032.35,438.88c-0.71-0.66-1.29-1.2-1.86-1.73c0.58-0.54,1.16-1.51,1.73-1.5c0.59,0.01,1.6,0.96,1.61,1.52
			C4033.84,437.74,4032.87,438.33,4032.35,438.88z"/>
		<path class="st1" d="M2472.32,1226.18c-0.54,0.4-1.07,0.83-1.66,1.14c-0.08,0.04-0.51-0.51-0.78-0.79
			c0.54-0.4,1.06-0.83,1.65-1.15C2471.62,1225.34,2472.05,1225.9,2472.32,1226.18z"/>
		<path class="st1" d="M2923.83,1376.95c-0.72,0.04-1.48,0.08-2.24,0.13c-0.02-0.39-0.09-1.12-0.04-1.13
			c0.75-0.12,1.52-0.15,2.28-0.19C2923.83,1376.15,2923.83,1376.55,2923.83,1376.95z"/>
		<path class="st1" d="M1186.22,2711.65c0.27,0.28,0.55,0.57,0.82,0.85c-0.55,0.41-1.09,0.85-1.69,1.17
			c-0.08,0.04-0.52-0.52-0.8-0.81C1185.11,2712.46,1185.67,2712.06,1186.22,2711.65z"/>
		<path class="st1" d="M2955.67,1370.82c0.66,0.33,1.37,0.61,1.94,1.05c0.15,0.11-0.1,1.07-0.27,1.1c-0.69,0.12-1.43,0.03-2.15,0.02
			C2955.35,1372.27,2955.51,1371.55,2955.67,1370.82z"/>
		<path class="st1" d="M621.74,2754.62c0.56-0.43,1.12-0.86,1.67-1.29c0.37,0.55,0.79,1.09,1.05,1.68c0.05,0.11-0.67,0.75-0.83,0.69
			C622.96,2755.44,622.37,2755,621.74,2754.62z"/>
		<path class="st1" d="M4213.71,291.86c-0.66,0.32-1.33,0.63-1.99,0.94c-0.14-0.4-0.51-1.08-0.4-1.17c0.58-0.42,1.28-0.69,1.95-1.01
			C4213.42,291.04,4213.56,291.45,4213.71,291.86z"/>
		<path class="st1" d="M4567.27,1328c0.71,0.41,1.89,0.73,2,1.25c0.12,0.59-0.72,1.36-1.14,2.06c-0.71-0.42-1.85-0.73-2.01-1.29
			C4565.97,1329.48,4566.84,1328.68,4567.27,1328z"/>
		<path class="st1" d="M3935.77,1317.83c0.73-0.19,1.46-0.41,2.2-0.51c0.08-0.01,0.26,0.68,0.4,1.05c-0.73,0.19-1.46,0.41-2.2,0.51
			C3936.09,1318.89,3935.9,1318.2,3935.77,1317.83z"/>
		<path class="st1" d="M3833.22,1231.47c-0.05-0.72-0.1-1.48-0.15-2.24c0.44-0.01,1.26-0.09,1.27-0.03
			c0.14,0.75,0.16,1.51,0.21,2.28C3834.11,1231.47,3833.67,1231.47,3833.22,1231.47z"/>
		<path class="st1" d="M3025.7,294.96c-0.4,0.64-0.81,1.27-1.21,1.91c-0.79-0.65-1.59-1.29-2.38-1.94c0.6-0.5,1.21-1.4,1.8-1.39
			C3024.51,293.55,3025.1,294.45,3025.7,294.96z"/>
		<path class="st1" d="M4923.32,1268c0.51,0.59,1.02,1.19,1.53,1.78c-0.67,0.38-1.31,0.83-2.03,1.08c-0.16,0.06-0.9-0.71-0.83-0.87
			C4922.33,1269.28,4922.86,1268.65,4923.32,1268z"/>
		<path class="st1" d="M1846,2946.26c-0.6,0.46-1.2,0.92-1.8,1.38c-0.38-0.6-0.82-1.19-1.09-1.84c-0.05-0.12,0.72-0.79,0.89-0.72
			C1844.71,2945.37,1845.34,2945.85,1846,2946.26z"/>
		<path class="st1" d="M1890.02,1258.96c-0.69-0.7-1.67-1.26-1.67-1.82c0-0.53,1.03-1.06,1.6-1.59c0.56,0.55,1.54,1.1,1.55,1.66
			C1891.51,1257.79,1890.56,1258.38,1890.02,1258.96z"/>
		<path class="st1" d="M1950.88,2957.38c0.31,0.26,0.63,0.52,0.94,0.77c-0.52,0.38-1.04,0.77-1.56,1.15
			c-0.11-0.39-0.39-0.82-0.29-1.15C1950.07,2957.84,1950.56,2957.63,1950.88,2957.38z"/>
		<path class="st1" d="M4435.04,2959.47c-0.7,0.06-1.4,0.18-2.09,0.12c-0.14-0.01-0.42-0.92-0.27-1.06c0.5-0.47,1.16-0.77,1.76-1.14
			C4434.64,2958.08,4434.84,2958.77,4435.04,2959.47z"/>
		<path class="st1" d="M184.51,1257.36c-0.76,0.06-1.59,0.12-2.41,0.18c-0.02-0.43-0.11-1.22-0.05-1.23
			c0.8-0.15,1.63-0.18,2.45-0.25C184.51,1256.49,184.51,1256.92,184.51,1257.36z"/>
		<path class="st1" d="M3315.16,2968.46c-0.41-0.14-1.17-0.35-1.16-0.42c0.15-0.74,0.42-1.46,0.66-2.18
			c0.4,0.15,1.15,0.36,1.14,0.44C3315.66,2967.03,3315.39,2967.74,3315.16,2968.46z"/>
		<path class="st1" d="M598.19,2040.67c-0.74,0.18-1.48,0.39-2.24,0.49c-0.07,0.01-0.24-0.7-0.37-1.07
			c0.74-0.18,1.48-0.39,2.23-0.49C597.89,2039.6,598.06,2040.3,598.19,2040.67z"/>
	</g>
</g>
</svg>
